<svg xmlns="http://www.w3.org/2000/svg" xml:space="preserve" width="112.38" height="55.41" viewBox="0 0 29.73 14.66">
    <g style="fill:none">
        <path fill="#00b532" 
        d="m50.59.02-.07.09h-.09v.08h-.08v.07h-.07v.09l-.09.08-.08.07h-.24v.08h-.16v.09h-.08v.07h-.32V.58h.08V.5h-.16v.08h-.08l-.08.16h-.08l-.08.08-.08.08v.08h-.08l-.08.08H48.19V.98h.16V.82h.08V.67l.08-.09V.5h.08V.26h-.32l-.08.09v.08h-.08V.5l-.09.08V.43h-.07V.5h-.24V.43l-.08.07v.08l-.09.09-.07.07h-.08v.08L47.3.74h-.07V.67h-.08v.07h-.16l-.08.08-.09.08h-.07l-.08.08h-.09v.32h-.07l-.08.08-.09.08h-.08v.08h-.07v.08H46.02v.08h-.16v.07h-.08v.24h.08v.08h-.08v.16h-.07v.08l-.09.08h-.08v.16h-.07l-.09.08v.08h-.08l-.07.08h-.09v.08h-.08v-.16h-.07v-.16l-.09.08-.08.16h-.07v.08h-.09v-.08h-.08v.08h-.24v-.08l-.08.08v-.08l-.08.08v.07h-.08v.09h-.08l-.08.08-.08.08h-.16l-.08-.08v-.08h.08l.08-.09V2.9l.08-.08.08-.08v-.08l-.08-.08h-.08v.08h-.08v-.08h-.08l-.08.08-.08.08v.08h-.08v.08h-.08v.07h-.08V3.13h-.16v.08l-.08.07-.08.09v.08h-.08v.07h-.16l-.08.09h-.09v.08h-.07l-.08.07v-.07h-.24v.07H42v-.07h-.07v.07h-.08l-.09.08h-.07v.09h-.08V4h-.16v-.16h-.08l-.09.09h-.07v-.09l.07-.08.09-.07v-.32h.08V3.2h.07v-.16h.09v-.09h-.09l-.07.09v-.09h-.08l-.09-.07v.07h-.32v.09h-.07v.08h-.24v.08h-.09v.07h-.39V3.05h.07v-.16h-.07v.07l-.09.09v.08h-.08v.08h-.07v.07H39.77v-.07l.08-.08.09-.17h-.41v.09h-.07l-.09.08h-.08v.08h-.16l-.08.07-.08.09h-.08v.08l-.08.07h-.08v.09h-.08v.08h-.16l-.08.07v-.07l-.08.07v.08h-.16l-.08.09h-.08l-.08.07v.16h-.08v.24h-.24v.24h-.16v.16l-.08.08-.08.08-.09.07v.09H37.05l-.09.08h-.07v-.08h-.24v.08H36.48v-.08l-.07-.09-.08.09-.09.08h-.07v-.08h-.32v-.09h-.09V4.8h-.07v.08l-.08-.08-.09-.09h-.08v.09h-.07v-.16l-.09.07-.08-.07h-.07v-.08l-.09-.09V4.4h-.08v.07h-.07v.09h-.09v.08h-.08v.24h-.07v.08H34.48l-.07.07v.09l-.09.08v.07l-.08.17V5.68h-.07v.07H34v.08h-.16l-.08.08h-.08V6h-.16v.08l-.08-.08v.08h-.08v-.08h-.08V5.9h-.08V6h-.08v.08h.08v.08h-.08v.24h-.16V6.3l-.08.08h-.16v.07h-.24V6.4h-.08V6.3h-.08l-.08.08h-.16v.07H32v.08h-.24v.09l-.09.08v.16l-.07-.09v.09H31.43l-.07.08v.07l.07.08-.07.09v.07h-.08l-.09.08-.07.08h-.08v.08h-.09l-.07.08v.08h-.08v.16l-.09-.09V7.9h-.07v.07H30.47l-.07.09v.08h-.25v.07l-.07-.07h-.09v.07l-.08-.07v.07h-.31v.08h-.24v.09l-.09.08v.07h.09v.08l-.09.09v.07h-.08v.08h-.16v.24l-.08.08v.08l-.07.08-.09.08h-.08v-.16h-.07v-.08h-.09V9.1h-.08v.08h-.08l-.08.08v.08h-.08v.08h-.08v.07l-.08-.07-.08.07h-.08v.09h-.08V9.72l-.08.08h-.08V9.48l-.08.09V9.72h-.24l-.08.08h-.16l-.08-.08h-.32v-.07h.08V9.48H26.38v.09h-.07V9.8l.07.09.09.07V10.13l.08-.09v.24h-.08v-.08l-.09.08h-.07l-.08.08h-.09l.09-.08-.09-.08v-.07H25.9v-.09H25.75v-.08h-.09l-.07.08v.16h-.08v.08h-.16V10.13h-.08l-.09-.09H24.94v.09h-.07v.07l-.08.08v.08l-.09.09V10.6h.09v.16l-.09.08v.32h.09v.07h.08v.09H24.46l-.08-.09v-.07h-.16v.31h.09V11.64h-.09l.09.07-.09.08h-.08v.08h-.07v.08h-.09v.08h-.08l-.07.08h-.09l-.08.09v.07h-.16l-.08.08h-.24v-.08h-.07v-.24h-.33v.08l-.08.09-.08.07v.08h-.16v.08h-.08v.08h-.08v.08h-.16l-.08.08h-.08v.16l-.08.08h-.08v.07h-.16l-.08.08-.08.09-.08.07v.08l-.08-.08h-.08v.08l-.08.09-.09.07h-.07l.07.08h-.07v.08h-.08v.08l-.09.08v.08l-.07.08h-.08v.08h-.09v.08l-.07-.08-.08-.08h-.09v.08h-.07v.16h-.08l-.09.08v.08l-.07.08.07.07v.09h-.07V14.8h-.08v.09h-.16V15.05h.07l.09.08v-.08h.08l-.08-.08h.08l.07-.07v.07h.09v.08h.08v.24h-.08v.08l-.09.08h-.07v.08l-.08-.08-.09-.16H19.5v-.16h.08l-.08-.08v-.08h-.09l-.08-.07h-.07l-.09.07h-.08v.08l-.07.08h-.09v.08h-.08v.08h-.07v.08h-.09v.08h-.08v.24h-.07V16.17h-.09V16.41h-.08l.08.07v.17h.09V16.8l-.09.08-.08.08v.08h-.16v.08h-.08v.07h-.16v.09h-.08v.08h-.07v.08h-.09v.08h-.08l-.08.16h-.16v.07l-.08.09v.08h-.24v.07H17v-.07l-.08-.08v-.09h-.08v-.07h-.16v.07h-.08V17.92h-.08l.08.07v.08h-.08v.16h-.08v.16l-.08.08v.08l-.08.08-.08.08v-.08h-.08v-.08l-.08-.08v-.08l-.08-.08v.08H15.8v.08H15.97v.08l.08.08v.08l.08.08h-.08l.08.08h-.08v.24h-.08l-.08.07-.09.08v.09H15.65v.08h-.09v.07h-.07v.08h-.08v.09l-.09.07h-.07v.08h-.08v.16H15v.08h-.08v.08l-.09.08-.07.08h-.08v.32h-.09v.24h-.07v.07h-.08v.08h-.09v.09h-.07v.08l-.08.07V21.42h-.09v.07h-.08v.08h-.07v.08h-.09v.08H13.64v.08h-.08l-.07.08-.09.08v.08H13.25v.08h-.09v.07h-.08V22.37h-.07l-.09.07v.08H12.77l-.09.09v.07l-.08.08h-.16v.09h-.08l-.07.08V23h-.09v.08h-.08V23h-.08v.08h-.16v.09l-.08-.09h-.08v.09H11.24l-.08-.09H11v.09h-.08l-.08-.09h-.08V23h-.24l-.08.08v.09l-.08.07-.09.08v.08l-.07.08-.08.08v.08h-.09v.07h-.07V23.88H9.79v-.08h-.07v.08h-.08v.07h-.09v.09H9.4l-.09.08h-.07v.07h-.08v.08h-.09v.09H8.92v.07h-.09v.08l-.07.08v.09h-.08v.07h-.09V24.92h.09v.07h-.09v.16h-.08v.08h-.07v.16h-.09v.07h-.48v.24H7.8v.24h-.07l-.09.08v.09h-.08V26.26h-.07v.08l-.09.08v.08h-.08v.08h-.07v.08H7.07v.16H7l-.09.08v.07l-.08.09v.08h-.16l-.08.07h-.24l-.08.09h-.08l-.08.08-.08.07v-.07h-.08V27.53h-.08v.09h-.24l-.08.07v.08h-.16v.08h-.16l-.16.08V28H4.9V28.16h-.08v.09h-.16v.08H4.5v.08l-.07.08v.16h.07v.16h-.07V28.96H4.26v.08H4.02v.09H3.87v.07l-.09.08-.07.09h-.08v.07h-.09v.08h-.07v.08h-.08v.08H3.22v.08h-.24v.08h-.07v.07h-.09V30h.09v.08H2.58l-.08.08h-.07v.07h-.09V30.4H1.71v.07h-.09v.09l-.08-.09h-.08v-.07l-.08.07v-.07H1.3v.07l-.08.09V30.7l-.08-.07-.08.07H.98v.08H.9v.09l-.08.07v.08H.74v.08H.58v.72H.26l-.08.08-.08.07v.09h.08v.08l-.08.07H.02v.08H.1v.09l-.08.07v.32H.1v.08h.08v-.08h.08v.24h.08V33.17H.5v.09h.08l.08.08-.08.07-.08.08h.08v.16H.5v.25H.42v.07l-.08.08v.09H.26V34.29H.18l.08.08h.08l.08.08.08-.08h.08v-.08l.08.08h.08v.16h.08l-.08.08h.08v.08H.74v.08H.66l.08.08h.08l.08-.08v.08h.16v.07l.08.09-.08.08h.32V35h.08v.08h.08l.08.07v.08l-.08.09.08.07v.16l.09.09h.07v.07l.08.08h.24l.09-.08v.08l.07.09v-.24h.08l.09-.09.07.09v-.09h.08v-.08h.24l.09.08h.07v.09h-.07l-.09.07h-.08v.08l-.07.09-.09.07H2.5l-.07.08h-.09v.08H2.2l-.09.08-.08.08-.07.08h-.09v-.08h-.08v.08l-.07-.08h-.09v.08l-.08.07V36.6h-.08v.07h-.08V36.84h.48l.09-.09V36.6h.07v-.08H2.19l-.09-.09v-.07h.16v.07h.08v.24h.24l.09-.07.15-.08h.09V36.67h.07v.24l-.07.08h.07v.09l-.07.07h-.09v.25l-.08.07.08.08h.09l.07-.08H3.15v-.07H3.3v-.09H3.47l.07-.08h.09v-.08h.08v-.07h.24V36.75h.07V36.53h-.07v-.24h.24v-.08h.16v-.16h.08l.07.08.09-.08.08.08v-.08h.07v.08h.09v.08H4.98v.08l-.07.08v.07l.07.09V36.76h-.07V37.08h-.08V37.3h.08v-.08h.07l.09.08v-.08h.08v-.08h.08v-.16l.08-.08h.08l.08-.07v-.09h.08v.09l.08.07h.16l.08-.07h.08v-.32h.08l-.08-.09h.08v-.07l.08.07v-.07h.16l.08-.08h.08l.08-.08.08-.08v-.08h.16v.08h.08v.08l-.08.08h.16v-.08H7v.08h.07v.08h.08v.07l.09.09v.08h.07v.07h.08v.24h.16l.08.08v.16h.16l-.07.08V37.4h.79V37.79H8.2v.08H8.1v.08h-.08l-.07-.08h-.24v.08h.07l.08.08.09.08h-.09v.07H7.8V38.03h-.07v-.08h-.24v.08h-.09v.08h-.08v.31h-.07v.08h.07l.08.09h.09V38.74h-.09v.16l-.08.08h.24v.08H7.72v.16h.07l.08.08H7.72l.07.08v.08h.08v.16h.09l.07-.08h.08v-.16H8.44l.07.08h.08v.32l-.08.08v-.08l-.07.08v.16h.07v.08h-.07v.07l.07.08v.24h.08v.16h.24v.23h-.07V41.05h-.08l.08.08h-.08v.16h.08v-.08h.07v-.08h.09v-.08H9l.07-.08h.09v-.09h.08l.07.09v-.09l.09.09.08.08h.16l.08.08h.07v.08H9.96l-.08.08h.08l.07.08-.07.07h.07v.32h.24v-.08h.09l.08.08v.09h.08l.08.07V42h.08v-.08h.4V42h.16v-.08h.08V42.09h.08V41.92l.08-.07V41.68l-.08.08v-.08h-.24v-.07h.16l.08-.08-.08-.09V41.05h.08V40.88h-.16V40.73h-.08v-.08h.16l-.08-.08h.08v.08h.24v-.24h-.08v-.16h.08l.08.09v-.09h.08v-.08h.08V39.93h.08V39.78l.08-.09h.08v-.07h.08v-.16h-.08v-.16l.08-.08v-.07h-.08v-.09h-.16v-.08h.16v-.39h-.08V38.42h-.08v-.07l-.08-.08h.08v-.16h.08v-.08h.08v-.08h.08l.08-.08h.09v.08h.07l.17-.08v-.08h.07v-.08l-.07-.08h-.41l-.08-.16v-.16h-.08V37.08l.08-.09h.08v-.08h-.08v-.07l.08-.09.08-.08h.09v.08H12.44v-.08h.09v-.07H12.68l.09-.08h.07V36.67h.08v-.07h.09V36.43h-.09l.09-.07.07-.08v.08l.08-.08h.09v-.16h.07l.08-.08h.09v.08l.07-.08h.65v.08l.08-.08v-.08h.07v.08l.09-.08v.08h.08l.07-.08H14.77v-.07h.31V35.72h.09v-.07l-.09-.09H15.25v-.16h.07v-.07h.09v-.09h-.09l.09-.08v-.07h.08V35l-.08-.09h.08v-.07h-.08v-.08h.08l.16-.08v-.08l-.09.08h-.07v-.08h.16l-.09-.08h.09v-.08H15.89v-.08l.08.08v-.16h.16v.08h.08l.08.08v.08h.32l-.08.08h.08v.08h.08v.08h.08v.08h.4v-.32h-.16l-.16-.08h.24l.16-.24h.24v-.07h-.08v-.09h-.24v.09l-.08-.09.08-.08v-.07l.08-.17v-.24l.08-.15V33.1l.08-.08h.08v-.08H17.82v.04l.07-.04.08.08v.08h.09v-.16h.07l.08.08-.08.15-.07-.07v.07l-.09.09h-.08l-.07.15-.09-.07v.07l-.08.08v.09H17.82v-.09l.15-.08.09-.07.07-.08.08-.09.09-.07.07.07h.08l.24.09H19.02v-.09h.07v.09H19.26l.15.08.09.07H19.74V33.26h.08V33.4l-.08.08H19.98v.09h.08l.07.07v-.07h.09l-.09.07h.09l.24.08.24.09.08.08h.16V34.05l.08-.08h.07v.08l.09.09V34.37h.08l.08.08.08-.08.08-.08v.08h.08v.24h.08v.08h.16v.08h.08l.08.08h.08v.07h.08v.09h.08v.08h.08v.07h.08V35.33h.08l.08.07h.08l.08.08v-.08h.08l-.08-.07h.08v-.09h.08l.08.09v-.09h.08l.09.09h.07v.07h.08l.09.08h.07v.08h.08l.09.09.15.15h.09v.09l.07.07.17.16.15.16.09.08.07.07h.08l.09.17.07.07.17.24.08.08v.16l.07.08v.08l.09.16v.24l-.09.08v.08H24.8l.08.08-.08.08-.09.08v.07h-.08v.09h-.16v.08h-.08v.07l-.07-.07v.07h-.09v.08h.09l-.09.09V38.9l-.08.08v.08h.08l-.08.09h-.07v.07h.07l-.07.08v-.08l-.09.08v.08H23.83v.08H23.66v.08h-.07v.08h-.09l-.08.07V39.86h.08v.07h.09V40.1h.07V40.25h.08v.16h.09v.08h.07v.24l.08-.08v.16l.09.07.07.09v.08h.08v.08h.09v.08h.07l.08.08h.09v.08h.07v.24h.08v.07h.09v.08l.08.09V42h.07v.09h-.07l.07.07v.08h.09v.08h.08v.31h.07V42.8h-.07v.39h-.08v.09l-.09.08V43.83l-.07.08v.23l-.08.09v.56l.08.08v.07h.07v.24H25.11v.24h.07v.08l.09.08.08.08v.08h.07v.08h.09v.07l.08.09v.08h.07v.07h.09l.08.08h.07v.09H26v.08h.08v.07h.24v.09h.16l.08.08v.07h.16v.08h.16l-.08.09h.08v.07h.08l.08.08v.32h.16v.07h.08v.09h.08v.08l.08.07h.08v.09h.08v.08h.08v.07l.16.08v.24h.08V48.37h.32l.08-.09H28.64v-.08l.07-.08H28.88v-.07l.07-.09h.24v.09h.08v.07h.09v.08h.07v.08h.08v.09h.09v.07h.07l.08.08.09.09H30.15l.08.07h.24v.08l.09-.08h.08v-.07l.07-.09h-.07v-.08h.07l.09-.07v-.25h.08v-.07h.07l-.07.15v.08h.07v-.08l.09-.08h.08v-.07h.07l.09-.09h.08v-.08h.55v.08l.09.09h.24l.08-.09v.09h.24v-.09h.08v.09h.08l.08-.09h.08l.08.09v-.09h.4l.08-.08.08-.07.08-.08H33.93l.07.08h.08v.07h.09v.08h.07l.08.09h.24v.07h.09v-.07h.07V48.2H34.89v.08H35.2v.09H35.37V48.6H35.52v.07H35.7v-.24l.07-.07h-.07V48.2h.07l.09-.08h.08v-.07H36v-.09h.09v-.08H36.24l.09-.07H36.48l.09-.08.08-.09v.09h.16l.15-.09h.24v.09h.25l.08.08h.24l.08.07h.08l.08.08h.08v-.08h-.08v-.07h.07l-.07.07.16-.07v-.08l-.08.08v-.08h.08v-.09h.08l.08.09h.08l.08.08.16.07h.08v.08h.08v.09h.08l.08.07v.08l.08.08H39.22v.09h.07l-.07.07h.15v-.07l.09.07.07.08.08.09.09.07.07.08.08.08h.09v.08l.15.16.09.07v.09h.07v.08h.08V49.47h.09l.07.09V49.8h-.07v.07h.07v.25h-.07v.07h.07v.08h-.07v.16H40.25v.08h-.16v.32h.09l.07-.08h.08v.08h-.08v.07h.08V51H40.18v.08h.07V51.22H40.73v.16h-.07v.08H40.8l.09-.08v-.07H41.05v-.09h-.08V51.07h.08v-.08H41.22v.08h.16v.07h.08V51.31h-.08v.07h.08v.08h.07l.09-.08h.08l.07.08v.08h.09l.08-.08v.08h.07v.08l.09.08v.08l.08.09h.16v.07l.08.08v.24l-.08.08-.09.07h.09v.09l-.09.08h.09V52.73h.08v.09h.07l.09.07v.08l.08.09h.07V53.2h.25V53.06h.08l.08.07v.08h-.08v.08h-.08l.08.08h-.08v.08h.08v.08h.08v.08h.16v.08h.08v.08l.08-.08v.08h.16v.08h.08v-.08h.16l.08.08v.08h.08v.16h-.08v.16l.08.08h.08V54.48h.08v.09h.08v.07l.08.08v.08h.08v.08h.16l.08.08v-.08h.09v.08h.07v-.08h.32l.09-.08h.15v-.08h.16v-.08h.08v-.07h.24V54.4l.09-.07h.07V54.16h.08v-.07h.09v-.08h.07l-.07-.08h.07v-.16h.08v-.08h.09v-.16h.08v-.08h.07v-.08h.09v-.16h.08v-.08l.07-.07V52.89H47v-.07h.07v-.24H47.23v-.08h.07v-.09h.09v-.07h.08v-.08l.07-.08h-.07v-.08h.07v-.23l.09.07v-.07h.08v-.09h.16v-.08h.08l-.08-.08h.08v-.16h.07v-.08h.09v-.16h.08V51.07h.08l.08-.08h-.08v-.09h.08V51h.16v-.09l.08-.07h-.08l.08-.08.08-.09h.08l.08.09h.16v.08h.08l.08-.08.08-.09v-.07h.08l.08-.08h.08l.08-.08v-.08h.08v-.08h.08V50.12h.08v-.09h-.08v-.08h-.16l.08-.08h.08l-.08-.07h.24l.08-.09v-.08h.16v.08H50.28v-.08H50.43v.08h.09v-.08h.07v.08l.08-.08h.09v.08H51.24l.07-.08h.24v-.07h.08v-.09l-.08-.08v-.07h-.16v-.08h.09v.08l.07-.08v.08h.08v.07h.24v-.07h.09v-.08h.08v-.09h-.08V48.92h.39l.09-.08v-.16h.08v-.07h-.08V48.44l.08-.07V48.2h.07l-.07-.08h.16v-.16h-.16v-.08h-.08v-.07l-.09-.08H52.2l.08-.09h.07v-.07h.09v.16H52.59v-.16h.09v.07h.08v-.07h.16v-.08H53l-.08.08H53.07v.07h.24v-.07h.09l.08-.08.07-.09H53.72v-.07h.16l.08-.08h.08v-.08h-.08l-.08-.08h-.08v.08h-.08l-.08.08v-.08h.08l-.08-.08v-.08l.08.08.08-.08V46.86h-.08v-.32h.08V46.69h.24v.32h.08v-.08h.16v.16h.08v-.08h.08v.08h.08v-.08h.08V46.86h.08v.07l.16-.07.08-.09v-.08H55V46.54l.08-.09h-.16l.08-.07h.16V46.21l-.08-.08v.08h-.16v.09h-.16l-.08-.09v-.08h-.24V45.98l.08.08h.16v.07h.24l-.08-.07v-.08h.08l.08.08h.08V45.89H55v-.07h.08l.08.07v.09h.16v-.16h.08v-.08h.08v-.08h-.08l-.08-.08h-.08v-.08h.08v.08h.08v-.08l-.08-.08h.08v-.07l-.08-.09v-.08h.08V45.35h.08V45.5h.09v-.08h.07v-.07h.08V45.02h.09v-.08h.07V44.7l-.07.09v-.09l-.09-.07h.09l-.09-.08v-.08h.09v.16h.07l.08-.08v-.24h.09v-.08H55.88l-.07-.09H55.96v-.07h.16l.08-.08v-.08h-.08V43.43h.08v-.07h-.08v-.08h.24v-.09h.08V43.04h.09v-.16h-.09l-.08-.08H56.53V42.63l.07.09.08-.09V42.48h.09v-.08h.07v-.08l.08-.08h-.08l-.07-.08-.09.08-.08.08v.08h-.07l-.09-.08v.08l-.08-.08v-.23H56.53V41.85h-.09v-.24l.09-.08h.07v.08h.08v-.24h.09v.31h.07V42H57.01v.16l.07.08-.07.08v.08H57.25v-.16h.08v-.08h-.08v-.07h.08V42h-.08v-.08h.08v-.16h.07V41.61h-.07v-.08h.07l-.07-.09v-.07h-.08v-.08H57.08v-.08h.08v-.08h.09v-.08h.08v-.08h-.08l.08-.09-.08-.07h.08V39.46h-.08v-.16H57.4v-.08h-.07l.07-.07h-.07v-.09h-.08v-.08H57.4V38.83l.09-.09h-.09v-.08h.09v-.16l-.09.09v-.09h.09V38.35h-.09v-.08H57.57v-.09h-.08v-.07h.08v-.16h.07v-.08h.09v-.16h-.09l.09-.08h-.09v-.08l.09.08h.08v-.16l.07-.07v-.25h.09v-.07h-.16l-.08-.09H57.88v-.08H57.64l.09-.07-.09-.08v-.09h.09v.09h.08v.08h.24V36.67h.07v-.07h-.07v-.08l.07-.09h-.07v-.07h-.08l-.09-.08H58.05v-.16h-.08v-.08l.08.08v-.08h.16V35.9h.08v-.09h.07l-.07-.08H58.12v-.07H58.3v-.09h.16v-.16h-.09v-.07h.09v-.09h.08v-.08h.07V35.01h.09v-.09h.08v-.07h.07v-.16h.09v-.16H59v-.08h.08v-.08h-.08l-.08-.08.08-.08h.08l.08.08.08-.08v-.07l.08-.09h-.08v-.08h-.08v-.07h.24v-.08h.16v-.09h.08V33.58h.08l-.08-.09h.08l.08-.08v-.07h.08v-.08h.08l.08-.09h.08v-.07h.08v-.08h-.08v-.08h.32v-.16h.08l.08-.08h-.08l-.08-.07v-.09h-.08V32.4l-.08-.09v.09h-.08v.07h-.08v.08l-.08-.08v-.16h.08v.16l.08-.07.08-.09.08-.08h.08v.24l.08.08h.08v-.08h-.08l.08-.07V32.22h.08l.08-.07h.16v-.08h.08l.09-.09h.07l.08-.07h.09v-.08H61.49v-.08l-.08-.09H61.58v-.07H61.73V31.42h.48V31.28l.09-.08v-.08l-.09-.08-.08-.08h.08l.09-.07h.07l.08.07.09-.07v-.09h-.09l.09-.08h.08l-.08-.07h.08v-.08h-.08v-.16l.08-.08v-.09h-.08v.09l-.09-.09V30l.09-.09.08-.07-.08-.08v-.16h.08v-.16h.07l.09-.07h.32v-.09h.07v.09h.09l.08-.09h.31l.09.09v-.09H63.89v-.08H64.06v-.07h.07v-.09h.09V28.9l-.09-.08v-.09h-.55V28.57H63.41v-.08H63.17v-.08h-.07v-.16l-.08-.09v-.95h.08v-.07h.07v-.08l.09-.09h-.09v-.07h.09v-.32l.08-.08v-.08l-.08-.08.08-.08V26.11h-.08v-.09l.08-.08v-.24h.07v-.07h.09v-.32h.08v-.08h-.08l.08-.08v-.08h.07V24.92h.09l.08-.09v-.08l.07-.07v-.09h.09l.08-.08h.07l.09-.08h.08v.08h.16v.08l.08.09v-.09h.08v.09h.32l.08.07h.24v.08l.16-.08h.08v-.07l.08.07h.16v-.07h.08v-.09h.08v-.08h-.08V24.27h.08v-.08h.08V23.8h-.08v-.09h-.08v-.07h.08v-.08h-.08v-.08h.08v-.31l.08-.09V22.93h.08v-.08l.08-.09h.08l.08.09h.09v.08h.07v-.08H66.63v.08H66.94v-.56h-.07v.07h-.09V21.97l-.08-.08v-.08H66.87v-.08h.07v-.16h-.07v-.08H66.7v-.07h-.07v-.09h.07v-.08l.08-.15h.09V20.93h-.09l-.08-.07h-.16v-.08h.09v-.09H66.87V20.22h-.09v.08h-.08v-.16h-.07v-.16h-.09v-.07h.09l.07-.09v-.39h-.07l.07-.08V18.94h.08l.09-.07v-.08l.07.08v-.08h.08v-.08h-.08v-.08h.08v-.08l.09-.08v.16l.07-.08H67.35v-.08h.07v-.16h.08v.08h.16v.08l.08.08v.08l.09-.08v-.24h.07l-.07-.08v-.07H67.98v-.09H67.83V17.75H67.66v.09l-.07-.09v-.07h-.09v.07H67.26l-.08.09-.07-.09H66.94v.09h-.07v-.09l-.09.09v-.09h-.39v-.07l-.09-.16.09-.08h-.09v-.32h.09v-.08h.07v-.08h.08v-.08l.09-.08v-.32h.07v-.07H66.87v-.09h-.09V16.17l-.08.07v-.07h-.07v-.08l-.09-.09V15.85h-.08l-.07.08h-.09V16h-.16v.09h-.08V16h-.56l-.08-.07V16h-.16v.09h-.08l-.16-.09v-.07l-.08-.08v-.08h-.08v-.08h-.08v-.08h-.08v-.08h-.32l-.08.08v-.08h-.08v.08h-.16v-.08l-.08-.08-.09.08h-.07v-.16h-.08v-.16h-.09l-.07-.08h.07l-.07-.08v-.08h-.08l-.09.08H63.26v-.08h.08v-.16h-.08V14.66h-.16v.07h-.08l-.09.08-.07-.08h-.08v-.07h-.24v.07h-.09l-.08-.07v.07l-.07-.07-.09.07v-.07l-.08.07h-.16l-.08-.07h-.24v-.08h-.07v-.09H61.4v-.07h-.07v-.32H61.17v-.16l-.07.08v-.08H61v-.08h-.32l-.08-.08h-.08v-.08h-.16v-.16h-.08l-.08-.08v-.07h-.08v-.09h-.16v-.08h-.08v-.16h-.08v-.08h-.08l-.08-.07h-.08v.07h-.08v.08h-.16v.09h-.08v.07h-.16v.08h-.08v.09h-.08v.55h-.09v.16h-.07v.08h.16v.08l.08.08v.08h.08l-.08.07V14.66h-.08V14.8h-.09v.09h-.07V15.2l-.08.08h-.09l-.07.08v.08h-.08l-.09.08-.07-.08h-.08v.16h-.09v-.08H57.97v.08h-.09l-.07.08H57.64v.08H57.4v.08h-.07v.08h-.08V16h-.09V16.17H57.01v.07h.07v.08h-.24v.09h-.24v.07h-.07v.08h-.09l-.08.09h-.07V16.8l-.09.08v.16H56.05l-.09-.08v.08H55.72v.08h-.08v.07h-.07V17.36h-.25v.08h-.08v.08h-.08l-.08.08h-.24v-.08h-.16v.08h-.16v.08h-.08l.08.07h-.08V17.92h-.08v.07H53.88l-.16-.07H53.31v-.08H53.16l-.09-.09H53v-.07h-.08l-.09-.08h-.07l-.08-.08h-.16l-.08-.08h-.09v-.08h-.07v-.08l-.08.08-.09-.08v.08l-.07-.08H51.87v-.09l-.07.09v-.09H51.63v-.07h-.08v-.08h-.07v-.08H51.3v-.08h-.07l-.09-.08h-.08v-.08l-.07.08-.09-.08H50.76l-.09-.07h-.08v-.09h-.24v-.08h-.07l-.09-.07v.07l-.08-.07h-.07v-.09H49.87v-.08l-.08.08h-.08v-.08h-.16v-.07h-.16v-.08h-.08V16h-.24v-.07h-.08v-.08h-.08l-.08-.08h-.16v-.16h-.16v-.08l-.08-.08h-.08l.08.08v.08h-.08l-.08-.08h-.08v-.08H48.02l-.07-.08h-.08v-.08h-.09v-.08h-.07v-.08h-.08l-.09-.08-.07-.08-.17-.16-.07-.08h-.08v-.07l-.16-.17-.08-.07-.09-.08-.07-.08-.08-.16-.09-.08-.07-.08-.08-.08-.09-.16-.15-.16-.09-.24-.08-.08v-.07l-.07-.17.07-.07h-.16l-.08-.17-.07-.23-.09-.24v-.32l-.08-.08V11l.08-.15v-.08l.09-.16v-.08l.07-.16v-.08l.08-.08.09-.16.15-.08.09-.07V9.8h.32v.09l.07-.09h.09v.09l-.09.07v.08l.09-.08h.08l.07.08.09.09.08.07.07.08h.24v-.08H47.47v-.07h.16l.08-.09h.16v-.08h.08v.08h.07l.09-.08v-.07h.16V9.8h.08v.09h.08l.08.07h.16v-.07h.24V9.72h.08v-.07h.16v-.08h.08v-.09h.08v-.07l.08-.08v-.08h.08v-.16l.08-.08v-.07h.08V8.77h.08V8.7h.08V8.6l.08-.08v-.07h.08v-.08h.09V8.2l.07-.07V7.97h.08V7.9H49.71v.07h-.16V7.66h-.08V7.5l-.08-.08h.08v-.08h-.16v-.08h.08v-.07h.08V7.1h.08V6.95h-.08V6.78h.24l-.16-.07v-.25h-.08l.08-.07h.08v.07l.08-.07h.08l.08-.17h.08v-.07h.16v-.08h.08v-.08l.09-.08H50.43v-.16H50.28l-.09-.07H50.04v-.09h-.09v-.08h-.16l-.16.08h-.08v.24h-.08v.16h.08v.08h-.08v.08l-.08-.08V6.22h-.08l-.08.09h-.08v.08h-.24V6.54h-.08v.09h-.16V6.78h-.08v-.07h-.08v.16h-.16v-.09h-.08v.09h-.08l.08.08h-.16V7.1h-.09v.09H47.87v.07h-.09v.08H47.54v.08l-.07-.08h-.08l-.09.08-.07.08v.23h-.08l-.09.09H47v.08l-.08-.08-.09.08H46.67l-.09.07V7.9H46.34l.09-.08h-.09v-.16h-.08l-.07-.08-.09.08-.08.07v.09h-.07V7.97h-.09V8.14H45.71v-.08h-.09v.08h-.08V8.29h-.16V8.06H45.23V8.2l-.09.08H45v.24h-.09v.08H44.42l-.08-.08h-.08v-.07h-.08l-.08-.08v-.09l-.16-.08-.08-.07-.08-.08h-.08l-.08-.16-.08-.08-.08-.09v-.07l-.08-.16-.08-.08-.08-.16-.08-.07-.08-.17v-.07l-.08-.17h.08l-.08-.07v-.08l-.08-.17V6.4l-.08-.08V5.35h.08V5.2l.08-.08v-.09h.16v-.07h-.08V4.8h.08V4.7h.08l.08-.15h.32l.08.08h.4v.07h.08l-.08.09h.16l-.08.08h.16l.08.08v-.08h.08l.08.15v.09l.08.08v.15h.09V4.96l-.09-.08V4.8l-.08-.09V4.47l.08-.07h.09l.07.07H44.99l.07-.07.08-.08v-.08h.09v-.08h.07v-.08h.08V4h.24v-.07h.09v-.09l.07-.08V3.52l-.07-.07v-.08l.07-.09v-.07h.08v-.08h.09l.15-.08h.24l.17.08h.07v.08l.09.07v.09h.08v-.09l.07.09v-.09h.24l.09.09h.08v-.09h.07v-.07H47.47v-.08l.07-.08h.09v-.09h.08l.07-.07h.09l-.09-.08h.09v-.08h.08v-.08h.16v-.08h.08v-.08h.16V2.4l.08-.08h.08v-.08h.08v-.07h.08v-.09h.24l-.08-.08-.08-.07v-.08h.08l.08.08h.24l.08-.08V1.7h-.08l.08-.08.08.08v.07h.08v.09h.16v-.09h.08V1.7h.08v-.08h.16v-.08l.08.08v-.08h.09v-.08l.07-.08h.08v-.24l.09-.08V.98l.07-.08V.82h.08l.09-.08V.67h.07V.43h.08V.35h-.08V.26h.08V.11Zm-7.6 5.01.07.09v.08h.08v-.08zm4.07 5.25-.15.17v.07l.08-.07.07-.09zm-.63-.48-.09.09v.07zm-.09.16h-.08v.08h.08zm0 .08v.09h.09v-.09zm20.2 5.8h.16V15.7h.08l-.08-.08h-.07v.16zm-.15 1.6h.07v-.08h-.07zm.07-.08h.08v-.08Zm.65 1.27-.09.08h.09zm-3.77 7.31h.07v-.07zm0 .48.07-.08h-.07zm-.08.16.08.08v-.08Zm-6.73 16.3h.07v-.08zm-.48 1.35h.07l-.07-.09zm-2.25 2.46-.08.08h.08zm-12.75 4.53.09-.08h-.09Zm-18.27-15.9v.08l-.08.08h.16V35.33Zm-.4-.08h-.08v.09zm-.8-.63h-.08l.08.08zm-3.6-1.6h-.16l.07.1zm-.16 0v-.03l-.09.04zm-8.58 7.87-.08.09h.08Zm-.56.4h-.09v.1h.09Zm-.17-1.5h.08l-.08-.09ZM7.24 38.5h-.09v.09h.09Zm9.93-20.58v-.08h-.08ZM40.25 2.89h.08l.09-.08v-.16l-.09.16h-.08zM47.3.74h.09V.67h-.09zM44.02 4.7l-.08.09h.08zM17.97 34.14v.07h.09v-.07zm0 .23-.32.4.4-.4zm4.57.87.08.09h-.08zm-7.46.72v.08h.09v-.08zm9.7 1.75.09.08v-.08ZM8.52 41.44v.09l.08-.09zm46.01 5.25.08.08h-.08zm-.97.08.09.09h-.09zm-2.24 2.31h.08v.07h-.08zm-1.36.4h.09v.08h-.09z"  style="fill:#00b532;fill-opacity:1" transform="translate(.03 .04) scale(.26458333)"/>
        <path stroke="#000" stroke-width=".0634999992" d="M12.57.24h.02l.02-.02.02-.03V.17l.02-.02v.02h.06V.15h.02V.2l.03-.02V.15h.02V.13l.02-.02h.08v.06h-.02V.2l-.02.03v.04h-.02V.3h-.04v.02h.13l.02-.02h.02V.28l.02-.02.02-.02h.02l.02-.05h.02V.17h.05V.2h-.03v.05H13.16V.22h.02V.19h.04V.17h.07l.02-.02.02-.02V.11h.02V.09h.02V.07h.02l.02-.02.03.02V.1h-.03v.02h.03v.02h-.03v.07h-.02v.02l-.02.02h-.02v.02l-.02.02v.02l-.02.02v.07h-.02l-.02.02v.02h-.03v.02l-.02-.02v.02h-.04v.02h-.02v.02h-.02v.02h-.04V.51h-.03V.49l-.02-.02-.02.02h.02v.04l-.02.02h-.06l-.02-.02h-.02v.02l.02.02.02.02h-.06v.03h-.03v.02h-.02v.02h-.02l-.02.02V.7h-.04v.02h-.02v.02h-.05v.02h-.02v.02h-.02l.02.03h-.02l-.02.01h-.02v.03h-.02l-.02.02v.02h-.05v.02h-.02v.02h-.02l-.02-.02h-.06v.02L12.4.91v.02h-.02V.91l-.03-.02V.87h-.02L12.3.85h-.06l-.05.02h-.02v.02h-.02v.02l-.02.02v.02l.02.02v.07l-.02.02v.02h-.02v.02h-.06v.02H12v.02H12v.02h-.02v.02l-.02.03-.02.01h-.04l-.02-.01h-.02l-.03.01v.07l.03.02v.02l.02.02V1.46h-.02v-.04l-.03-.03v-.02l-.02-.04h-.02v.02l-.02-.02h-.04l.02-.02h-.04l.02-.02h-.02v-.02H11.59l-.02-.02h-.09l-.02.04h-.02v.02h-.02v.04h.02v.02h-.04M12.57.24v.02l-.03-.02m.03 0h-.03m.03 0V.22h-.03v.02m0 0h-.02V.22h-.02v.02h-.04l-.02.02-.02.02h-.02l-.02.02h-.03v.08h-.02l-.02.03-.02.02h-.02v.02h-.02v.02h-.05v.02h-.04v.02h-.02v.06h.02V.6h-.02v.05h-.02v.02l-.02.02h-.02v.04h-.02l-.02.02v.02H12L12 .78h-.02v.03h-.02V.76h-.02V.72l-.02.02-.02.04h-.02v.03h-.02V.78h-.03v.03h-.06V.78l-.02.03V.78l-.02.03v.01h-.02v.03h-.03l-.02.02-.02.02h-.04l-.02-.02V.85h.02l.02-.03V.81l.02-.03.02-.02V.74l-.02-.02h-.02v.02h-.02V.72h-.02l-.02.02-.02.02v.02h-.02v.03h-.03v.01h-.02v.05h-.04v.02l-.02.02-.02.02v.02h-.02v.02h-.04l-.03.02h-.02v.03h-.02l-.02.02v-.02h-.06v.02h-.03v-.02h-.02v.02h-.02l-.02.02h-.02v.02h-.02v.02H11v-.04h-.02l-.03.02h-.02v-.02l.02-.02.03-.02V.93H11V.9h.02V.85h.02V.82h-.02L11 .85V.82h-.02l-.03-.01v.01h-.08v.03h-.02v.02h-.07v.02h-.02v.02h-.1V.85h.02V.8m0 0h-.02v.01l-.02.03v.02h-.03v.02h-.02v.02h-.04V.89l.02-.02.02-.05h-.1v.03h-.02l-.02.02h-.03v.02h-.04l-.02.02-.02.02h-.02v.02l-.02.02h-.03V1h-.02v.03h-.04l-.02.02v-.02l-.02.02v.02h-.04l-.02.02h-.03l-.02.02v.04h-.02v.07h-.06v.06h-.04v.04l-.02.02-.03.02-.02.02v.02h-.04l-.02.03h-.02v-.03h-.07v.03h-.04v-.03l-.02-.02-.02.02-.02.03H9.6v-.03H9.5v-.02H9.5v-.06h-.02v.02l-.02-.02-.02-.02H9.4v.02H9.4v-.04l-.03.02-.02-.02h-.02v-.02l-.02-.03v-.01h-.02v.01h-.02v.03h-.02v.02H9.2v.06H9.2v.02h-.04l-.02.02v.02l-.02.03v.02l-.02.04v.06h-.02v.02h-.05v.02h-.04l-.02.03h-.02v.01H8.9v.03l-.03-.03v.03h-.01v-.03h-.03v-.01h-.02v.01H8.8v.03h.02v.02H8.8v.06h-.04v-.02l-.02.02h-.05v.02h-.06v-.02H8.6v-.02h-.02l-.02.02h-.04v.02h-.03v.02h-.06v.02l-.02.03v.04l-.02-.02v.02h-.05l-.01.02v.02l.01.02-.01.02v.02H8.3l-.02.02-.02.02h-.02v.02h-.02l-.02.03v.02h-.02v.04l-.03-.02v.04h-.02v.02H8.1l-.02.02v.02h-.06v.02l-.02-.02h-.03v.02l-.02-.02v.02h-.08v.02H7.8v.03l-.03.02v.02h.03v.02l-.03.02v.02h-.02v.02h-.04v.07l-.02.02v.02l-.02.02-.02.02h-.03V2.5H7.6v-.02h-.02v-.02h-.02v.02h-.02l-.02.02v.02H7.5v.02h-.03v.02l-.01-.02-.03.02h-.02v.02H7.4v.04l-.02.02h-.02v-.08l-.02.02v.04H7.27l-.03.02H7.2l-.02-.02h-.09V2.6h.03v-.04H7v.02h-.02v.06l.02.03.02.02v.04l.02-.02v.06h-.02v-.02l-.02.02h-.02l-.02.02h-.03l.03-.02-.03-.02v-.02h-.06V2.7h-.04v-.02h-.02l-.02.02v.04h-.02v.02h-.04v-.04H6.7L6.7 2.7h-.06v.02H6.6v.02l-.02.02v.02l-.03.02v.05h.03v.04l-.03.02v.08h.03v.02h.02v.02H6.5l-.02-.02V3h-.04V3.08h.02v.04h-.02l.02.02-.02.02H6.4v.02H6.4v.02h-.03v.02h-.02l-.02.03h-.02l-.02.02v.02h-.04l-.03.02h-.06v-.02h-.02v-.07h-.08v.03l-.03.02-.02.02v.02h-.04v.02h-.02v.02h-.02v.02h-.05l-.01.02h-.03v.04l-.02.03H5.8v.02h-.04l-.02.02-.02.02-.03.02v.02l-.01-.02h-.03v.02l-.02.02-.02.02h-.02l.02.02h-.02v.03h-.02v.01l-.02.03v.02l-.02.02H5.5v.02h-.02v.02l-.02-.02-.02-.02h-.02v.02H5.4v.04h-.02l-.03.02v.02l-.01.03.01.02v.02h-.01v.06H5.3v.02h-.04v.04h.02l.02.02v-.02h.03L5.3 4h.03l.01-.02V4h.03v.02h.02v.07h-.02v.02l-.03.02h-.01v.02l-.03-.02-.02-.04h-.1v-.05h.02l-.02-.02V4h-.03l-.02-.02h-.02L5.1 4h-.02v.02l-.02.02h-.02v.02h-.02v.03H5v.02h-.03v.02h-.02v.06h-.02v.13h-.02v.06h-.02l.02.02v.04h.02v.05l-.02.02-.02.02v.02h-.04v.02h-.03v.02h-.04v.02h-.02v.02h-.02v.03h-.02v.01H4.7l-.02.05h-.05v.02l-.02.02v.02h-.04m6.1-3.97h.03l.02-.03V.74l-.02.04h-.02Zm-6.1 3.97h-.02v.02h-.02v-.02l-.02-.02v-.02h-.02v-.02h-.05v.02h-.02v.04H4.4l.02.02v.02H4.4v.04h-.02v.05l-.02.02v.02l-.02.02-.02.02v-.02h-.03v-.02l-.01-.02V4.9l-.03-.02v.02h-.04v.02h.04v.02l.03.02V5l.01.02h-.01l.01.02h-.01v.07h-.03l-.02.02-.02.02v.02h-.04v.02h-.02v.02h-.02v.02H4.1v.02l-.02.02h-.02v.03h-.02v.04H4v.02h-.02v.02l-.02.02-.02.02H3.9v.09H3.9v.06h-.02v.02h-.02v.02h-.02v.02H3.8v.02l-.02.02v.05h-.03v.02h-.02v.02h-.02v.02H3.7v.02h-.06v.02h-.02l-.02.02-.03.02v.02h-.04v.03h-.02v.02H3.5v.04h-.02l-.02.02V6H3.4l-.03.02v.02l-.02.02h-.04v.03H3.3l-.02.02v.02h-.02v.02h-.03v-.02h-.02v.02h-.04v.02l-.02-.02h-.02v.02H3l-.02-.02h-.04v.02h-.02l-.02-.02h-.02v-.02H2.8l-.02.02v.02l-.02.02-.02.02v.02l-.02.02-.03.02v.03h-.02v.02h-.02v.04h-.04v-.02H2.6v.02h-.02v.02h-.02v.02H2.5l-.02.02h-.02v.02h-.02v.02h-.02v.02h-.04v.02h-.02v.03l-.02.02v.02h-.03v.02H2.3v.04h.02v.02H2.3v.05h-.02v.01h-.02v.05h-.02v.02H2.1v.06H2.1v.06h-.02l-.02.03v.02h-.02v.04H2V7l-.03.02v.02h-.02v.02h-.02v.03H1.9v.04h-.02l-.02.02v.02l-.03.02v.02H1.8l-.02.02h-.06l-.02.02h-.02l-.03.02-.02.02v-.02H1.6v.05h-.02v.02h-.06l-.02.02v.02h-.05v.02h-.04l-.04.02v.02h-.04v.04H1.3v.02h-.04v.03h-.04v.02l-.02.02v.04h.02v.04H1.2v.04h-.04v.03h-.07v.02h-.04v.02l-.02.02L1 7.8H.99v.02H.97v.02H.95v.02H.92v.02H.88v.02H.82v.03H.8v.02H.77v.02H.8V8H.7l-.02.02H.67v.02H.65v.04H.48v.02H.46v.03L.44 8.1H.4v-.02L.4 8.1v-.02H.37v.02l-.02.03v.04l-.02-.02-.02.02H.29v.02H.27v.02l-.03.02v.02H.22v.02H.18V8.46H.1l-.02.02-.03.02v.02h.03v.03l-.03.02H.03v.02h.02v.02l-.02.02v.08h.02v.03h.03V8.7H.1v.07h.02v.04h.04v.02h.02l.02.02-.02.02-.02.02h.02v.04H.16v.07H.14v.02l-.02.02v.02H.1v.04H.08l.02.03h.02l.02.01.02-.01h.02V9.1l.02.03h.02v.04h.02l-.02.02h.02v.02H.22v.02H.2l.02.02h.02l.03-.02v.02H.3v.02l.02.02-.02.02h.08V9.3h.02v.02h.03l.02.02v.03l-.02.02.02.02v.04l.02.02H.5v.02l.02.02h.06l.03-.02v.02l.02.03v-.07h.02l.02-.02.02.02v-.02H.7v-.02h.06l.03.02h.02v.02H.8l-.03.02H.75v.02l-.02.03-.02.01H.7l-.02.03H.65v.02H.6l-.03.02-.02.02-.02.02H.52v-.02H.5v.02l-.02-.02H.46v.02l-.02.02v.04H.4v.02H.4v.05h.13l.02-.02v-.05h.02V9.7h.05l-.03-.02v-.02h.05v.02h.02v.06H.7l.02-.02.04-.02H.8v.04h.02v.07l-.02.02h.02v.02l-.02.02H.77v.07l-.02.01.02.03H.8l.02-.03h.04v-.01H.9V9.9h.05l.02-.02h.02v-.02H1v-.02h.06v-.08h.02V9.7h-.02v-.06h.07v-.02h.04v-.04h.02l.02.02.02-.02.02.02v-.02h.02v.02h.02v.02h.05v.02l-.02.02v.02l.02.02v.07h-.02v.08H1.3v.06h.03V9.9h.02l.02.02V9.9h.02v-.02h.02v-.04l.02-.02h.02l.03-.02v-.02h.02v.02l.02.02h.04l.02-.02h.02V9.7h.02l-.02-.02h.02v-.02l.02.02v-.02h.05l.02-.02h.02l.02-.02.02-.02v-.02h.04v.02h.02v.02l-.02.02h.05v-.02h.02v.02h.02v.02h.02v.02l.02.02v.02h.02v.02h.02v.07h.05l.02.02v.04h.04l-.02.02v.05H2.28v.1H2.2v.02h-.03v.02h-.02l-.02-.02h-.06v.02m2.5-5.3v-.02h-.02Zm-2.5 5.3h.02l.02.02.02.02h-.02v.02H2.1v-.04h-.02Zm0 0h-.06v.02h-.03v.02h-.02V10.21h-.02v.02m0 0h.02l.02.02h.03v.04h-.03v.04l-.02.02h.07v.03h.04v.04h.02l.02.02h-.04l.02.02v.02h.02v.04h.02l.02-.02h.02v-.04H2.26l.02.02h.02v.08m-.36-.33h-.02v.02h.02zm.36.33-.02.03v-.03m.02 0h-.02m.02 0-.02-.02v.02m0 0-.02.03v.04h.02v.02h-.02v.02l.02.02v.06h.02v.04h.07v.07h-.02v.04h-.03l.03.02h-.03v.04m0 0h.03v-.02h.02v-.02h.02v-.02h.02l.02-.02h.02m-.13.08H2.3V11h.02zm.13-.08v-.02h.02m-.02.02.02-.02m-.02.02h.02v-.02m0 0 .02.02v-.02l.02.02.03.02h.04l.02.02h.02v.02h.04l-.02.02h.02l.02.03-.02.02h.02v.08h.07v-.02h.02l.02.02v.02h.02l.02.02v.02h.02v-.02H2.96v.02H3v-.02h.02v.05h.02v-.05l.03-.02v-.04l-.03.02v-.02h-.06v-.02h.04l.02-.02-.02-.02V10.9h.02v-.04H3v-.04h-.02v-.03h.04m0 0L3 10.78h.02zm0 0h.07v-.06h-.02v-.04h.02l.02.02v-.02h.02v-.02h.02v-.06h.02v-.05l.02-.02h.02v-.02h.02v-.04h-.02v-.04l.02-.02v-.02h-.02v-.02h-.04v-.03h.04v-.1H3.2v-.04h-.02v-.02l-.02-.02h.02v-.05h.02v-.02h.02v-.02h.02l.03-.02h.02v.02h.02l.04-.02v-.02h.02v-.02L3.34 10h-.11l-.02-.05v-.04H3.2v-.06l.02-.02h.02V9.8h-.02v-.02l.02-.02.03-.03h.02v.03h.04v-.03h.02v-.02h.04l.03-.02h.02v.04h.02v-.02h.02v-.04h-.02l.02-.02.02-.02v.02l.02-.02h.02V9.6h.02l.02-.02h.03v.02l.02-.02h.17v.02l.02-.02v-.03h.02v.03l.02-.03v.03h.02l.02-.03h.05v-.01h.08v-.05h.02v-.02l-.02-.02h.04v-.04h.02v-.02h.02v-.02h-.02l.02-.03v-.02h.03V9.3l-.03-.02h.03v-.02H4.1v-.02h.03l.04-.02V9.2m0 0-.02.02h-.02V9.2h.02zm0 0-.02-.02h.02v-.03h.06v-.01l.02.01v-.04h.04v.03h.03l.02.01v.03h.08l-.02.02h.02v.02h.02v.02h.03v.02h.1v-.08h-.04l-.04-.03h.06l.04-.06h.07v-.02h-.03v-.02h-.06v.02l-.02-.02.02-.02V9l.02-.04V8.9l.02-.04V8.8l.02-.02h.03v-.03h.08v.02m0 0 .02-.02.02.03m-.04-.01h-.02.02m.04 0v.03h.03m-.03-.02h-.04m.04 0-.02.02-.02-.02m.07.02v-.05h.01l.03.03-.03.04zm0 0v.02l-.03.02h-.02l-.02.04-.02-.02v.02l-.02.02v.02h.04V8.9l.04-.02.03-.02.01-.02.03-.02.02-.02.02.02h.02l.06.02H5.06v-.02h.02v.02h.04l.04.02.03.02h.06v-.04h.02v.04l-.02.02h.06v.02h.03l.01.02m0 0v-.02h.03zm0 0h.03l.06.03.06.02.03.02h.04v.04l.02-.02h.02v.02l.02.02v.07h.02l.03.01.01-.01.03-.03v.03h.02v.06m0 0h.02v.02h.04v.02h.02l.02.02h.03v.02h.01v.02h.03v.02h.02v.02h.02v.03m-.21-.17h-.02l.02.02zm.2.17v.02h.03l.02.02h.02l.02.02m-.08-.06h-.02v.02zm.08.06V9.4h.03m-.03.02.03-.02m-.03.02h.05v-.04h-.02m0 .02-.03-.02h.03m0 .02v-.02m0 0v-.02h.02l.02.02v-.02h.02l.02.02h.02v.02h.02l.03.02h.01v.02h.03l.02.02.04.04h.02v.03l.02.01.05.05.04.04.02.02.02.02h.02l.02.04.02.02.05.07.02.02v.04l.02.02v.02l.02.04v.07l-.02.02v.02h-.04l.02.02-.02.02-.03.02v.02h-.02v.03H6.5v.02h-.02v.02l-.02-.02v.02h-.02v.02h.02l-.02.02v.08l-.03.02v.03h.03l-.03.02H6.4v.02m0 0h.01l-.01.02zm0 0-.03.02v.02h-.04v.02H6.3v.02h-.02v.02h-.02l-.03.02v.05h.03v.02h.02v.04h.02v.04h.02v.04h.02v.02h.02v.07l.02-.03v.05l.03.02.01.02v.02h.03v.02h.02v.02h.02l.02.02h.02V11h.02v.06h.02v.02h.03v.02l.02.02v.04h.02v.03H6.6l.02.01v.03h.02v.02h.02v.08h.02v.04h-.02V11.47h-.02v.02l-.02.02v.13l-.02.02v.06l-.02.02V11.9l.02.02v.02h.02V12h.04v.07h.02v.02l.02.02.03.02v.02h.01v.02h.03v.02l.02.03v.02h.02v.02h.02l.02.02h.02v.02h.02v.02h.03v.02h.06v.02h.04l.02.03v.01h.04v.03h.05l-.02.02h.02v.02h.02l.02.02v.08h.04v.02h.02v.03h.03v.02l.01.02h.03v.02h.02v.02h.02v.02l.04.02v.06h.02v.05h.09l.02-.02h.08v-.03l.02-.02h.05v-.02l.02-.02h.06v.02h.02v.02h.03v.02h.01v.03h.03v.02h.02v.02h.02l.02.02.02.02H8.01l.02.02h.06v.02l.02-.02h.02v-.02l.02-.02h-.02v-.02h.02l.03-.02v-.07h.02v-.02h.02l-.02.04v.03h.02v-.03l.02-.02h.02v-.02h.02l.02-.02h.03v-.02h.14v.02l.02.02h.07l.02-.02v.02h.06v-.02h.02v.02h.02l.03-.02h.02l.02.02v-.02h.11l.01-.02.03-.02.02-.02H9l.02.02h.03v.02h.02v.02h.02l.02.02h.06v.02h.02v-.02h.02v.04h.05v.03h.08v.02h.05v.06h.04v.02h.04v-.06l.02-.02h-.02v-.05h.02l.02-.02h.02v-.02h.02v-.02h.03v-.02h.04l.02-.02h.04l.02-.02.02-.02v.02h.05l.04-.02h.06v.02h.07l.02.02h.06l.02.02h.02l.02.02h.03v-.02h-.03m0 0v-.02h.02zm0 0 .05-.02v-.02m0 0-.02.02v-.02zm0 0v-.02h.02l.02.02h.02l.02.02.04.02h.02v.02h.03v.02h.02l.02.02v.02l.02.03h.04v.02h.02l-.02.02h.05v-.02l.02.02.02.02.02.02.02.02.02.02.02.02h.02v.02l.05.05.02.02v.02h.02v.02h.02v.04h.02l.02.02v.07h-.02v.01h.02v.07h-.02v.02h.02v.02h-.02v.04h-.04v.02h-.04V13.5h.02l.02-.02h.02v.02h-.02v.02h.02v.02h-.04v.02h.02v.04H10.8v.04h-.02v.03h.05l.02-.03v-.01h.04v-.03m0 0h-.02v-.04h.02v-.02h.04v.02h.05v.02H11v.05h-.02v.01H11v.03h.02l.02-.03h.02l.02.03v.02h.02l.02-.02v.02h.02v.02l.03.02v.02l.02.02h.04v.02l.02.02v.07l-.02.02-.02.02h.02v.02l-.02.02h.02V14h.02v.03h.02l.02.01v.03l.03.02h.01v.04h.07v-.04h.02l.02.02v.02h-.02v.02h-.02l.02.02h-.02v.02h.02v.02h.02v.03h.04v.02h.03v.02l.02-.02v.02h.04v.02h.02v-.02h.04l.02.02v.02h.02v.04h-.02v.04l.02.03h.03v.04h.02v.02h.02v.02l.02.02v.02h.02v.02h.04l.03.02v-.02h.02v.02h.02v-.02h.08l.02-.02h.05v-.02h.04v-.02h.02v-.02h.06v-.05l.02-.01h.02v-.05h.03v-.02h.02v-.02h.02l-.02-.02h.02v-.04h.02v-.02h.02v-.05h.02v-.02h.02v-.02h.03v-.04h.02v-.02l.02-.02v-.05h.04v-.01h.02v-.07h.04v-.02h.02v-.02h.03v-.02h.02v-.02l.02-.02h-.02v-.02h.02v-.07l.02.02v-.02h.02v-.02h.04v-.02h.02l-.02-.02h.02v-.04h.02v-.03h.03v-.04h.02v-.04h.02l.02-.02m-1.93.06.02-.02h-.02zm1.93-.06h-.02v-.02h.02zm0 0h.04v-.02l.02-.02h-.02l.02-.02.03-.02h.02l.02.02h.04v.02h.02l.02-.02.02-.02v-.02h.02l.03-.03h.02l.02-.02v-.02h.02v-.02h.02v-.04h.02v-.02h-.02v-.02h-.04l.02-.03h.02l-.02-.01h.06l.02-.03v-.02h.05v.02h.04v-.02h.04v.02h.02v-.02h.02v.02l.03-.02h.02v.02H13.58l.02-.02h.07v-.02h.02v-.02l-.02-.02v-.02m0 0h-.02m.02 0v-.02l-.02.02m.02 0h.02v.02h.06v-.02h.02v-.02h.03v-.02h-.03v-.07H13.88l.02-.02v-.04h.02v-.02h-.02v-.04l.02-.02v-.05h.02l-.02-.02h.05v-.04h-.05v-.02h-.02v-.02l-.02-.02h-.04l.02-.02h.02v-.02h.02v.04h.04v-.04h.03v.02h.02v-.02h.04m-.38.46h-.02v-.02h.02zm.38-.46v-.02h.02zm0 0h.04v.02h.06v-.02h.03l.02-.02.02-.03h.04v-.02h.04l.02-.02h.03v-.02h-.03l-.02-.02h-.02v.02h-.02m0 0-.02.02v-.02zm0 0-.02-.02v-.02l.02.02.02-.02v-.04h-.02v-.02m0 0v-.07h.02v.04m-.02.03.02-.03m-.02.03h.02v-.03m0 0h.07V12.48h.02v-.02h.04v.04h.02v-.02h.02v.02h.02v-.02h.02v-.04h.03v.02l.04-.02.02-.02v-.03h.02v-.04l.02-.02h-.04l.02-.02h.04v-.04l-.02-.02v.02h-.04v.02h-.04l-.02-.02v-.02m0 0h-.07v-.04l.02.02h.05zm0 0h.06l-.02-.02v-.02h.02l.02.02h.02v-.05h-.02v-.02h.02l.02.02v.03h.04v-.05h.03v-.02h.02v-.02h-.02l-.03-.02m0 0h-.02v-.02h.02zm0 0h.03v-.02l-.03-.02h.03v-.02m0 0-.03-.02v-.03h.03v.03zm0 0h.02v.04h.02v-.02h.02v-.02h.02v-.09h.02v-.02h.02v-.06l-.02.02v-.02l-.02-.02h.02m0 0-.02-.02v-.02h.02v.02zm0 0h.02l.02-.02v-.07h.03v-.02m0 0h-.05l-.02-.02h.04v-.02h.05l.02-.02v-.02h-.02v-.13h.02v-.02h-.02v-.02h.06v-.02h.02v-.04h.02v-.04m-.12.35h.02l-.02-.02zm.12-.35h-.02l-.02-.03h.04v-.04l.02.02.03-.02v-.04h.02v-.02h.02v-.02l.02-.02h-.02l-.02-.03-.02.03-.03.02v.02h-.02l-.02-.02v.02l-.02-.02V11.18h.04v-.07h-.02v-.06l.02-.02H15v.02h.03v-.06h.02v.08h.02v.08h.04v.04l.02.03-.02.02v.02h.06v-.04h.03v-.03h-.03v-.01h.03v-.03h-.03v-.02h.03v-.04h.02v-.04h-.02v-.02h.02L15.2 11v-.02h-.03v-.03h-.04v-.02h.02v-.02h.02v-.02h.03v-.02h-.03l.03-.02-.03-.02h.03v-.36h-.03v-.04h.05v-.02h-.02l.02-.02h-.02v-.02h-.03v-.03h.05v-.04l.02-.02h-.02v-.02h.02v-.04m-.26 1.16H15v-.03zm.26-1.16-.02.02v-.02zm0 0v-.04h-.02v-.02h.04v-.03h-.02v-.02h.02v-.04h.02v-.02h.02v-.04h-.02l.02-.02m0 0h-.02v-.02Zm0 0h.02v-.05l.02-.01v-.07h.02v-.02h-.04l-.02-.02h.04V9.8h-.06l.02-.02-.02-.02v-.03h.02v.03h.02v.02h.07v-.05h.02v-.02h-.02V9.7l.02-.02h-.02v-.02h-.03l-.02-.02h.05V9.6m0 0h-.03v-.02zm0 0v-.02h.04v-.04h.02V9.5h.02l-.02-.02h-.04v-.02h.04v-.02h.04v-.04h-.02v-.02h.02v-.02h.02v-.03h.02V9.3h.03v-.02h.02v-.02h.02v-.04h.02v-.04h.02v-.03h.02v-.01h-.02l-.02-.03.02-.02h.02l.02.02.02-.02v-.02l.03-.02h-.03v-.02h-.02V9h.07v-.02h.04v-.02h.02v-.05h.02l-.02-.02h.02l.02-.02v-.02h.02v-.02h.02l.03-.02h.02V8.8h.02v-.02h-.02v-.03h.08v-.04h.02l.02-.02h-.02l-.02-.02v-.02H16v-.04l-.02-.02m0 0v.02h-.02m.02-.02-.02.02m.02-.02.02-.02h.02v.06l.02.02h.02v-.02h-.02l.02-.02v-.04h.03l.02-.02h.04v-.03h.02l.02-.02h.02l.02-.02h.03v-.02h.04v-.02l-.02-.02h.04V8.4h.04v-.04h.13V8.3l.02-.02v-.02l-.02-.02-.02-.02h.02l.02-.02h.02l.02.02.02-.02v-.02h-.02l.02-.02h.03l-.03-.02h.03v-.02h-.03v-.05l.03-.02v-.02h-.03v.02l-.02-.02v-.06l.02-.02.03-.02-.03-.03v-.04h.03v-.04h.02l.02-.02h.08v-.02h.02v.02h.02l.03-.02h.08l.02.02v-.02h.04v-.02h.05v-.02H17v-.02h.02v-.05L17 7.66v-.02h-.15V7.6h-.04v-.02h-.07v-.02h-.02V7.5l-.02-.02V7.24h.02v-.02h.02V7.2l.02-.02h-.02v-.02h.02v-.09m-.8 1.54v.02h-.02m.02-.02-.02.02m0 0v.02l-.02-.02v-.04h.02zm.82-1.56.03-.02v-.02m-.03.04.03.03v-.03zm.03-.04-.03-.02.03-.02v-.04h-.03v-.02l.03-.03m0 .13.02-.02h-.02zm0-.13v-.06h.02v-.02h.02v-.08h.02V6.7h-.02l.02-.01v-.03h.02v-.04h.02l.02-.02V6.6l.02-.02v-.02h.03l.02-.02H17l.02-.03h.02v.03h.04v.02l.02.02v-.02h.03v.02h.08l.02.02h.06v.02l.05-.02h.02v-.02l.02.02h.04v-.02h.02v-.02h.02v-.02h-.02v-.07h.02v-.02h.03v-.1h-.03v-.02h-.02V6.3h.02v-.03h-.02v-.02h.02v-.08l.03-.02V6.1h.02v-.02l.02-.03h.02l.02.03h.02v.02h.02v-.02h.05v.02h.08v-.15h-.02v.02h-.02v-.13l-.02-.02v-.02h.04V5.8h.02v-.04h-.02v-.02h-.04V5.7h-.02v-.02h.02v-.03l.02-.04h.02v-.04h-.02l-.02-.02h-.05v-.02h.03v-.02h.06v-.13h-.02v.02h-.02v-.04h-.02v-.04h-.03V5.3h.03l.02-.02V5.18h-.02l.02-.02v-.11h.02l.02-.02v-.02l.02.02v-.02h.02V5M16.8 6.9h.02v-.02zM17.76 5h-.02v-.02h.02v-.02l.02-.02v.04m-.02.02.02-.02m-.02.02h.02v-.02m0 0 .02-.02h.05v-.02h.02v-.04h.02v.02h.04v.02l.02.02v.02l.02-.02v-.06H18l-.02-.03v-.02h.05v-.02h-.05v-.08h-.04v.02l-.02-.02v-.02h-.02v.02h-.07l-.02.02-.02-.02h-.04v.02h-.02v-.02l-.02.02v-.02H17.59v-.02l-.02-.05.02-.01m0 0h-.02V4.57h.02v-.02h.02v-.02h.02V4.5l.03-.02V4.4h.02v-.02h.04v-.02h-.02v-.04l-.02.02v-.02h-.02V4.3l-.03-.02v-.05m-.04.43h.02v-.03m-.02.03v-.03h.02m.02-.4h-.02l-.02.03h-.02v.02h-.04v.02h-.02v-.02h-.15l-.02-.02v.02h-.05v.02h-.02l-.04-.02v-.02l-.02-.03v-.02h-.02V4.2h-.02v-.02h-.02v-.02H17.06l-.02.02v-.02h-.02v.02h-.04v-.02l-.02-.02-.03.02h-.02V4.1h-.02v-.05h-.02l-.02-.02h.02l-.02-.02V4h-.02l-.02.02h-.05V4h.03v-.04h-.03v-.04h-.04v.02h-.02l-.02.02-.02-.02h-.02v-.02h-.07v.02h-.02l-.02-.02v.02l-.02-.02-.02.02v-.02l-.02.02h-.05l-.02-.02h-.06V3.9h-.02v-.02h-.04v-.02h-.02V3.77h-.05v-.04l-.02.02v-.02h-.02v-.02h-.08l-.03-.02h-.02v-.03H16v-.04h-.02l-.02-.02v-.02h-.02v-.02h-.05v-.02h-.02V3.5h-.02v-.02h-.02l-.02-.02h-.02v.02h-.02v.02h-.04v.02h-.03v.02h-.04v.02h-.02v.02h-.02v.15h-.02v.04h-.02v.02h.04v.02l.02.02v.03h.02l-.02.02v.04h-.02v.04h-.02v.02h-.02v.08l-.02.03h-.03l-.02.02v.02h-.02l-.02.02-.02-.02h-.02v.04h-.02v-.02h-.05v.02h-.02l-.02.02h-.04v.02h-.06v.02h-.02v.03h-.03v.02h-.02v.04h-.04v.02h.02v.02h-.06v.02H15v.02h-.02v.02h-.02l-.02.02h-.02v.05l-.02.02v.04h-.04l-.03-.02v.02h-.06v.02h-.02v.02h-.02v.04h-.07v.03h-.02v.01h-.02l-.02.03h-.06v-.03h-.04v.03h-.05v.02h-.02l.02.02h-.02v.04h-.02v.02h-.13l-.04-.02h-.11v-.02h-.04l-.02-.02h-.02v-.02h-.02L14 4.7h-.02l-.02-.03h-.05l-.02-.01h-.02v-.03h-.02v-.02l-.02.02-.02-.02v.02l-.02-.02h-.05V4.6l-.02.02V4.6h-.04v-.02h-.02v-.02h-.02v-.02h-.05V4.5h-.02l-.02-.02h-.02v-.03l-.02.03-.02-.03h-.04l-.02-.02h-.03v-.02h-.06V4.4h-.02l-.02-.02v.02l-.02-.02h-.02v-.02h-.05v-.02l-.02.02h-.02v-.02h-.04v-.02h-.04V4.3h-.03v-.02h-.06v-.02h-.02v-.03h-.02l-.02-.02h-.04v-.04h-.05v-.02l-.02-.02h-.02l.02.02v.02h-.02l-.02-.02h-.02v-.02h-.05l-.02-.02h-.02v-.02h-.02v-.03h-.02v-.02h-.02l-.02-.02-.02-.02-.05-.04-.02-.02h-.02v-.02l-.04-.04-.02-.02-.02-.03-.02-.02-.02-.04-.03-.02-.02-.02-.02-.02-.02-.05-.04-.04-.02-.06-.03-.02v-.02l-.02-.04.02-.02h-.04l-.02-.05-.02-.06-.02-.06V3.2l-.02-.02V2.95l.02-.04v-.02l.02-.04v-.03l.02-.04v-.02l.02-.02.02-.04.05-.02.02-.02v-.03h.06m5.32 1.6h.05V4.2h.02l-.02-.02h-.02v.04zm-5.32-1.6h.02v.03l.02-.03h.03v.03l-.03.02v.02l.03-.02h.02l.02.02.02.02.02.02.02.02m-.17-.13-.02.03v.02m.02-.05-.02.05m.19.08h.06v-.02h.05v-.02h.04l.02-.02h.04v-.02h.02v.02h.02l.03-.02v-.02h.04v-.03h.02v.03h.02l.02.02h.05v-.02h.06V2.6h.02V2.6h.04v-.02h.02v-.02h.02v-.02l.03-.02v-.02h.02v-.04l.02-.03V2.4h.02v-.04h.02v-.02h.02v-.02l.02-.02v-.02h.02v-.02h.03V2.2l.02-.02v-.04h.02v-.02h-.13v.02h-.04v-.08h-.02v-.05L13.1 2h.02v-.02h-.05v-.02h.03v-.02h.02v-.02h.02v-.04h-.02v-.04h.06l-.04-.02v-.07h-.02l.02-.02h.02v.02l.02-.02h.02l.02-.04h.02v-.02h.05v-.02h.02v-.03l.02-.01h.04v-.05h-.04l-.02-.02h-.04v-.02h-.03V1.5h-.04l-.04.02h-.02v.06h-.02v.04h.02v.03h-.02v.02l-.02-.02v.04h-.03l-.02.02h-.02v.02h-.06v.04h-.02v.02h-.04v.05h-.03v-.02h-.02v.04h-.04v-.02h-.02v.02h-.02l.02.02h-.04v.04h-.03v.02h-.04v.02h-.02v.02h-.06V2l-.02-.02h-.02l-.03.02-.02.02v.07h-.02l-.02.02h-.02v.02l-.02-.02-.02.02h-.04l-.03.02v-.02h-.06l.02-.02h-.02v-.04h-.02l-.02-.02-.02.02-.03.02v.02h-.02v.04h-.02v.04h-.04v-.02h-.02v.02h-.02v.04h-.04v-.06h-.05v.04l-.02.02h-.04v.07h-.02v.02h-.13l-.02-.02h-.02v-.02h-.02l-.02-.02v-.03l-.05-.02-.02-.02-.02-.02h-.02l-.02-.04-.02-.02-.02-.02v-.02l-.02-.05-.03-.02-.02-.04-.02-.02-.02-.04v-.02l-.02-.04h.02l-.02-.02v-.03l-.02-.04v-.02l-.02-.02V1.46h.02v-.04l.02-.03v-.02m1.08 1.4-.04.03v.02l.02-.02.02-.02zm-1.08-1.4.02.02v.03h.02v-.03zm.89 1.3h-.02v.03h.02m0-.02v.02m0 0v.02h.02V2.7zm5.32 1.93h.02v-.02ZM11.67 1.3l-.02.02h.02zM4.78 9.07v.02h.03v-.02zm0 .07-.08.1.1-.1zM6 9.37l.02.02H6zm-1.97.18v.03h.02v-.03zm2.57.47.02.02v-.02ZM2.28 11v.02L2.3 11zm12.17 1.38.02.03h-.02zm-.25.03.02.02h-.02zm-.6.6h.03v.03h-.03zm-.36.11h.03v.02h-.03z"/>
    </g>
    <g style="fill:#000;fill-opacity:1">
        <path d="m60.71 63.33.06-33.2 7.54-.02 8.92 14.07 8.55-14.1 8.03.05.13 17.34s1.14 10.18 10.2 9.36c2.31-.2 6.34-.3 8.15-3.66l5.07 5.57s-5.62 4.68-11.12 5.48c-6.71.98-17.15-3.54-19.52-14.6l-.13-8.1-9.36 14.56-9.37-14.05.12 21.27z" style="fill:#000;fill-opacity:1;stroke-width:.265;stroke-dasharray:none" transform="translate(-10.58 -8.5) scale(.34350802)"/>
        <path d="M95.7 31.14s12.92-6.45 21.53 3.93L112.04 40s-7.22-9-16.2.25z" style="fill:#000;fill-opacity:1;stroke-width:.264999;stroke-dasharray:none" transform="translate(-10.58 -8.5) scale(.34350802)"/>
    </g>
</svg>