<svg xmlns="http://www.w3.org/2000/svg" width="39" height="44" fill="none">
    <g filter="url(#a)">
        <path fill="#000"
            d="M25.13 4.42A7.64 7.64 0 0 0 19.43 2c-2.23 0-4.25.85-5.7 2.4a7.86 7.86 0 0 0-1.99 6c.33 4.53 3.78 8.22 7.7 8.22 3.91 0 7.36-3.68 7.7-8.22a7.83 7.83 0 0 0-2.01-5.98Zm7.37 30.83H6.38a2.3 2.3 0 0 1-1.8-.83 2.62 2.62 0 0 1-.53-2.16 12.7 12.7 0 0 1 5.65-8.44A17.7 17.7 0 0 1 19.44 21c3.55 0 7 1 9.74 2.82a12.7 12.7 0 0 1 5.65 8.44c.14.8-.05 1.59-.53 2.16a2.3 2.3 0 0 1-1.8.83Z" />
    </g>
    <defs>
        <filter id="a" width="46" height="46" x="-4" y="0" color-interpolation-filters="sRGB"
            filterUnits="userSpaceOnUse">
            <feFlood flood-opacity="0" result="BackgroundImageFix" />
            <feColorMatrix in="SourceAlpha" result="hardAlpha"
                values="0 0 0 0 0 0 0 0 0 0 0 0 0 0 0 0 0 0 127 0" />
            <feOffset dy="4" />
            <feGaussianBlur stdDeviation="2" />
            <feComposite in2="hardAlpha" operator="out" />
            <feColorMatrix values="0 0 0 0 0 0 0 0 0 0 0 0 0 0 0 0 0 0 0.25 0" />
            <feBlend in2="BackgroundImageFix" result="effect1_dropShadow_10_22" />
            <feBlend in="SourceGraphic" in2="effect1_dropShadow_10_22" result="shape" />
        </filter>
    </defs>
</svg>