<svg xmlns="http://www.w3.org/2000/svg" width="68" height="55" fill="none"><path fill="#00B532" d="M50.6 0v.1h-.2v.2h-.1l-.1.1v.1h-.4v.2h-.4V.5h-.2l-.1.2H49v.1l-.2.1-.1.2h-.5V1h.1V.9h.1V.6l.1-.1V.3H48.1v.2H47.5v.2h-.2v.1h-.1V.6H47v.1l-.2.1h-.2v.4h-.2v.2h-.2v.1H46v.1H45.7v.6l-.2.1v.2h-.2v.1h-.1v.1H45v-.2h-.1v.2H44.1V3H44l-.2.1v.1h-.2V2.8h.2V2.5h-.4v.2h-.2V3.2H43v.1H43l-.1.2v.1h-.2l-.1.1h-.1l-.2.2v-.1h-.4l-.1.1h-.1V4h-.2v-.2h-.1l-.1.1v-.5h.2V3h.1V3h-.2l-.1-.1H41V3h-.1v.1h-.2v.1h-.5V2.8L40 3v.2H39.7L40 3h-.4l-.1.1h-.1v.1H39l-.1.2h-.1v.1h-.2v.1h-.2v.2-.1h-.2v.1h-.1L38 4l-.2.1v.4h-.2v.2h-.2v.2h-.1l-.1.2h-.1v.1H37v.1h-.5V5l-.2.1v.1h-.5v-.4h-.4v-.2l-.1.1h-.1v-.1l-.2-.1v-.1h-.1v.2h-.1v.2h-.2V5h-.1v.1l-.2.1v.5H34v.1h-.2V6h-.2v.2l-.2-.1h-.2V6.4h-.4v.2H32.4v-.1H32v.1h-.2v.1l-.1.1V7l-.1-.1h-.2v.5h-.2v.1H31v.1h-.1v.2h-.1V8H30.4l-.1.2h-.2v.1h-.8v.2h-.1V8.8h-.1V9H29V9.2l-.1.1-.1.1v-.2h-.2V9h-.2v.2h-.2v.1H28v.2h-.2v.2h-.1V9.4h-.1v.2h-.2l-.1.1h-.5V9.4h-.4v.6h.2v.1h-.2l-.2.2v-.2H25.8V10H25.5v.2H25.2l-.1-.2H25v.1h-.1v.1h-.1v.2h-.1V11.2h.2v.1h-.5v-.1h-.2v.2h.1V11.8H24v.2H24v.1h-.1v.1h-.2v.1h-.2v.2H23.1V12h-.4v.1l-.1.1v.2H22.3v.1H22v.2H22v.1l-.1.1h-.2l-.1.2h-.1v.2H21.1l-.1.2v.1h-.2V14h-.2v.2h-.2v-.2h-.1v.1h-.1v.1l-.2.2v.5H20v.1h-.1v.2h.2L20 15l.1-.1h.1v.2h.1V15.4H20v.1H20l-.1-.2h-.4V15l-.2-.1H19v.2h-.2v.1h-.1v.2h-.1v.2h-.2v.8h-.1v.2h.1v.2l-.1.2h-.1v.1H18v.2h-.1v.1h-.2v.1l-.1.2h-.1l-.2.1v.1h-.4v-.2h-.2v.2h-.2.1V18.3h-.2V18.5l-.1.1v.1H16V18.3H15.8h.2V18.8h.1v.4h-.2l-.1.2h-.2v.2h-.1v.2h-.2v.1h-.1v.1H15v.2h-.2v.1l-.1.1h-.1V20.7h-.1V21h-.2v.2h-.1V21.5H14v.2h-.2v.1H13.6v.1h-.1l-.1.2h-.2v.2H13v.2h-.2v.1h-.1l-.1.1-.1.2h-.2l-.1.1v.1h-.4v.2l-.1-.1h-1V23h-.4v.2l-.1.1v.1h-.1v.2H10v.2h-.4v.2h-.2v.1h-.2v.2H9v.1h-.2V24.7h-.2v.5h-.2V25.5h-.5v.2h-.1v.2l-.2.1V26.3h-.1l-.1.1v.1h-.2v.2H7v.1H7v.1l-.2.2h-.1l-.1.1h-.2l-.1.1h-.1l-.2.2v-.1.1h-.1v.1H5.6v.2h-.4l-.1.1v.1H5v.2H4.6v.1h-.2v.7H4v.1h-.1v.1h-.1v.2h-.2v.1h-.1v.1h-.2v.2H3v.1h-.2v.1H3 2.5l-.1.2h-.2v.2h-.7v.2-.1h-.1v-.1h-.2V30.8H.8V31H.6v.1H.6V31.9H.3l-.1.1H0v1-.1h.2V33.2h.2v.2h.2l-.1.1H.5v.5l-.2.2v.1H.2v.2H.6v-.1h.2v.2h.1V34.8H.6h.4v.2h.4l.1.2v.4h.1v.1l.2.1h.4v-.2h.2v-.1H3v.2h-.2v.1l-.1.2H2.3v.1h-.1l-.1.1-.2.2v-.1H1.6V36.7h-.2v.2H2v-.2h.2v-.2h.2v.2H3V37.5h-.2l.1.2H3v-.1h.2v-.1h.4v-.2h.2V37H4V36.8H4v-.5h.1v-.1h.2V36h.1l.1.1H4.9v.1H5V37.4h.2V37h.1V37h.1l.2-.2.1.1H6V36.5H6v-.2H6.3v-.1h.1l.1-.1V36h.2v.1h.1v.1H7v.2h.2v.2h.1V37H7.7v.2h.1V37.4H8.6V37.8H8.1v.2h-.4v.1l.2.1h-.2v-.2H7.4v.1h-.1v.4h-.2v.1H7.5v.2h-.1v.2h.1v.2h.2v.1l.2.1h-.1V39.7H8.2v-.2h.4v1.2H8.9v.4h-.1v.2H9V41H9V41h.2v-.1h.2v.2H9.8v.1h.2l.1.2v.4h.2v-.1h.2v.1h.1l.1.1v.1h.8V41.6h-.2.1l.1-.2v-.6h-.2v-.2h.1v-.1H11.6v-.1h-.1v-.2h.2v-.1h.1v-.4l.2-.1h.1V39h-.2V39h.1v-.5h-.1v-.2h-.1v-.1h.2V38h.1l.1-.1H12.6v-.1h.1v-.2h-.4l-.2-.1V37h.1v-.2l.1-.1H12.6v-.1h.5V36.2h.2v-.1h.1l.1-.2v.1h.8V36H14.9v-.1h.2v-.1h.2v-.2H15h.2v-.2h.1v-.6l.2-.1h-.1.1v-.2h.2v-.1h.2v-.1h.2v.2h.4V34.8H17.3v-.3h-.4.2l.3-.3h.2V34H17v-.2l.2-.2V33h.1v-.2h.4l.2.1v.1-.2h.1l.1.1v.2L18 33l-.1.2h-.1v.1h-.2v.2h.1v-.1h.2v-.2h.1l.1-.1.1-.1h.2l.2.2H19v-.1h.2l.2.1.1.1h.2v-.1h.1v.1h.2v.2h.2l.3.1.2.1v.1h.2v.2l.1-.1.2.1V34.4h.2l.1-.1V34.7H21.9v.2H22.1v.2h.2V35.4h.2v.1h.2v-.2h.2v.1h.2v.1H23.5v.2h.1l.2.2h.1l.1.2.2.1.1.2h.1v.1h.2v.2h.1l.2.3v.2l.1.1v.1l.1.2v.4h-.2v.1l-.1.1v.2H24.3v.1h-.2v.1h.1v.4H24v.2h.1-.1v.2h-.2v.2H23.5v.1h-.1v.5h.2V40.5h.2v.4h.2v.2h.1v.1h.1v.1h.2v.2h.1v.2h.1v.2h.2v.4h.1v.1h.1v1h-.2v.8l-.1.1V45h.1v.2h.2v.4h.2v.2h.1v.1h.1v.2h.2v.1l.1.1h.1v.1h.2v.2h.4v.1h.2v.2h.2-.1v.1h.1l.1.1V47.4h.1v.1h.2v.2h.2v.2h.2l.1.2v.2h.1v.2H28.3l.1-.1h.3v-.1H29V48h.4v.2h.2v.2h.1l.2.1v.1h.6v.2l.2-.1.1-.2.1-.1V48h.2l-.1.2h.2V48h.2v-.1h.6l.1.1H33.5v-.1h.1l.1-.2H34l.1.1h.2v.2h.4v.1h.1v.1h.5v.2h.2v.2h.2v-.2h.2-.1v-.2h.2V48h.1v-.1h.4l.2-.2h.8l.1.1h.4l.1.2v-.1h.2v-.2l-.1.1v-.2h.1l.1.1h.1v.1h.3v.2h.1l.2.1v.1h.2v.2h.2l.1.1.1.1h.1v.2h.2v.1l.2.2v.1h.1v.1h.1v.2h.1v.9h-.2v.1H40V50.9h.2v.1h-.1V51.3h.5V51.5h.1l.1-.1h.2v-.2H41V51h.4v.5h.1l.1-.1h.1v.1H42v.1l.1.1v.2h.2l.1.1V52.3l-.1.1V52.7h.1v.1h.2v.2h.1v.2h.2V53h.2v.1H43V53.6h.1v.1h.2v.2l.2-.1h.1v.2h.1v-.1h.2v.1h.1v.4h.1V54.6h.2v.2h.2l.2.2v-.1h.4l.1-.1H45.5v-.2h.4v-.2h.1v-.2h.1V54h.2l-.1-.2v-.1h.1v-.1h.1v-.2h.1v-.1h.2V53h.1v-.2H47.1V52.5h.1v-.1h.1v-.2h.2v-.4h.2v-.1h.2V51.5h.1v-.1h.1V51h.2v-.2h.2v-.2h.4v.1h.2l.1-.1v-.1H49.5v-.2h.1v-.1h.1V50h-.2l.1-.1h.1v-.1h.2v-.2h.2v.1H51.6v-.1h.1v-.2h-.2v-.2.1H52V49h.4V48.6h.1v-.5h.2V48h-.1v-.1h-.2v-.2h-.2.2v-.1.1h.1v-.1h.4v-.1h.1v.1h.4v-.1l.2-.1h.2l.2-.2-.1-.1h-.1l-.2.1h.1V47h.1V46.4v.1h.2v.4h.6v-.1h.2l.1-.1v-.1h.1V46.3h.2v-.1L55 46v.1H55v.1H54.6V46H54.4V46h.2v.1H55V46h.1v-.1h.4V45.5h-.2v-.1h.2V45.1 45.6h.2v-.2h.1V45h.1v-.5.1h.2v-.4h-.1V44h.2l.1-.1V43.2h.2V43h.1v-.1l-.1-.1h.1v-.2l.1.1v-.2h.2v-.1l.1-.2h-.2l-.1.1v.1h-.2V42h.1V41.5h.1v.1-.2h.2v.6h.2v.4h.2v-.2h.1v-.4h.1v-.4h-.2v-.1H57V41h.2V39.3h.1V39h-.2V39h.2v-.7h.2v-.1h-.1V38h.1v-.1h.1V37.6h.1v-.4h.2V37h-.1l-.2-.1h.1-.2l.1-.2v-.1h.1v.1h.2v-.1h.1V36.4H58l-.1-.1h.2v-.1H58V36v.1h.2V35.7h.2H58v-.2H58.4v-.4h.2V34.9h.2v-.2h.1v-.2h.1v-.2h.2V34h.1V34h-.1v-.1h.4V33.5h.1v-.1h.1v-.2h.2v-.1h.1V33h.1v-.2h.2v-.1h.1l.1-.1h-.2V32.3l-.1-.1v.2H60v-.2.2l.1-.1v-.1h.2v.2h.2v-.2l.2-.2h.2l.1-.1h.2v-.2h.1v-.1h.2v-.1h.1v-.2h.5v-.1l.1-.1V31H62h.1l.1-.1h.2v-.1h.1V30.1v.1h-.1V30l.1-.2v-.4h.5v-.1H63.9v-.1H64.2V29h.1V28.7h-.6v-.1h-.1v-.1H63V27l.2-.1h-.1v-.4l.1-.1V25.6h.2V25h.2V25l.1-.2v-.2H64.2l.1-.2h.1v.1h.2v.2-.1h.4l.1.1H65.3v.1h.2v-.1H65.9v-.1h.1V23h.2v-.2h.2v.1H67v-.5h-.1V22l-.1-.1h.2v-.4h-.2V21h.2v-.2h-.4v-.1h.1v-.1H67v-.4h-.2V20h-.2.1l.1-.2V19l.2-.1v-.1h.1v-.2l.1-.1v.1h.2v-.1h.1v-.1H67.7v.2h.1v-.2h.1V17.7H67.5v-.1H67.3l-.1.1H66.3v-.1l-.1-.2V17h.2v-.1l.1-.1V16.4H67v-.2h-.1v-.1h-.1V16l-.2-.1v-.2l-.1.1h-.1v.1H65v-.2h-.1v-.1h-.2v-.2H64.3l-.1.1H64l-.1-.2-.1.1v-.1h-.2v-.1l-.1-.2V15H63.3V14.7H63l-.2.1h-.1v-.1H61.7v-.1h-.1v-.1H61.3V14h-.1v-.2l-.1.1v-.1h-.4v-.1h-.2v-.1h-.1v-.2h-.1v-.1H60v-.1h-.2V13H59.2v.2H59v.1h-.2v.8h-.1.1v.2h.1v.5h-.2v.4h-.2v.2h-.2v.1h-.1v.1H57.6v.2H57.3v.1h-.2V16.2H57v.1h-.2v.1H56.5v.2H56.2v.2h-.1v.2h-.5v.1h-.1v.2h-.2v.1h-.2v.1l-.1.1h-.7l.1.2v.1h-1.3l-.1-.1H53v-.1l-.2-.1h-.2l-.2-.2h-.1v-.1h-.4v-.1H51.6V17h-.2v-.1h-.2v-.1h-.4l-.1-.2H50.4v-.1H50v-.2h-.4v-.1h-.2V16H49v-.2H48.6v-.1h-.1v-.2h-.2v.1h-.2v-.2H47.8v-.1h-.1V15h-.2l-.1-.1-.2-.2H47v-.1l-.1-.2-.2-.2-.1-.2h-.1v-.2h-.2v-.2l-.2-.2-.1-.2V13l-.2-.1h.1-.1l-.1-.3v-.2l-.2-.2v-1.5l.1-.2V10.2l.2-.1V10h.2v-.2H46.8l-.1.2h.2l.1.1v.1H47.7l.1-.2h.4v-.1h.2v-.1h.1l.1.2h.2v-.1h.2V9.6H49.3v-.1h.1v-.2h.2v-.4h.1v-.1h.1v-.1l.2-.2v-.1h.1v-.1l.1-.2v-.2h-.5v-.2h-.1v-.2h-.1V7h.1V6.7h.2-.2v-.4h.2l.2-.2h.2V6H50.5v-.2h-.1l-.1-.1H50v-.1h-.4v.2h-.1V6.1h-.1v.1l-.2.1H49v.2h-.2v.1h-.1v.1h-.1V7h-.2v-.1h-.2V7.2H47.8v.2H47.6v.1H47.2V7.7H47v.1H47V8H46.3v-.2h-.1l-.1-.1H46v.2h-.2V8.1H45.6v.1h-.2V8h-.1v.1H45V8.6h-.1v.1H44.2v-.1h-.1l-.1-.1v-.1h-.2V8h-.2v-.2h-.2v-.2l-.1-.2h-.1v-.2l-.2-.1V7l-.1-.2v-.2l-.1-.1V5h.2v-.2h.1l.1-.2h.8v.2h.2-.1.1l.1.2v-.1h.1V5l.2.1v.2-.6h-.1v-.4h.5v-.2h.2V4h.4v-.7h.2V3H46.5v.1h.2v.2-.1h.8V3h.1V3h.1v-.1h.2-.1v-.2H48.2v-.2h.2l.1-.2h.1v-.1h.2V2h.2l-.1-.2h.4v-.2h.1V2h.2v-.1h.1v-.1H50v-.2.1h.1v-.1l.1-.1V1h.2V.9h.1l.1-.2V.5h.2V.2h-.1V0ZM43 5v.2h.1L43 5Zm4 5.3v.2-.2Zm-.6-.5v.2-.2Zm0 .2h-.1Zm0 0v.1Zm20.1 5.8h.2v-.1l-.2.1Zm-.1 1.6Zm0 0h.1v-.1Zm.7 1.2v.1ZM63.3 26h.1Zm0 .5h.1Zm0 .2Zm-6.8 16.3h.1v-.1Zm-.5 1.3h.1Zm-2.2 2.5Zm-12.7 4.5ZM22.8 35.3v.1h-.1.2-.1Zm-.4 0h-.1Zm-.8-.7h-.1ZM18 33h-.1v.1Zm-.2 0ZM9.2 41Zm-.5.4h-.1Zm-.2-1.5v-.1Zm-1.3-1.3Zm10-20.6H17Zm23-15h.2v-.2.1h-.2ZM47.3.7Zm-3.3 4v.1ZM18 34.1v.1Zm0 .3-.4.4.5-.4H18Zm4.5.8.1.1Zm-7.4.8Zm9.7 1.7ZM8.5 41.4v.1Zm46 5.3h.1Zm-1 0 .1.2v-.1Zm-2.2 2.4Zm-1.3.4Z"/><path stroke="#000" stroke-width=".2" d="M47.4.7h.1l.1-.1V.5h.5V.2h.4v.5h-.2V1h-.1v.2h.5V1h.1V.9h.1V.6h.2V.6h.1V.5h.1v.2h.4V.6h.2V.5h.2l.2-.2V.2h.2V0l.2.1v.2h-.1v.4l-.2.1V1h-.1v.2h-.1v.2l-.2.2v.1h-.2v.1h-.2V2h-.2v-.2h-.2V2h-.4V2h.1-.2v.2h-.1v.1h-.2v.1h-.2v.2H48v.1h-.1v.1h-.1V3h-.2l-.1.1v.1h-.2v.2H47v-.1h-.5V3h-.7v.1h-.1V4h-.2V4H45.2v.2H45v.2h-.5v.4l.1.2v.4-.2h-.1V5l-.1-.1H44.1v-.1H44v-.2h-.8v.1H43V5H43M47.4.7v.1h-.1m0 0V.6m0 0H47v.1l-.2.1h-.2v.4h-.2v.2h-.2v.1H46v.1H45.7v.6l-.2.1v.2h-.2v.1h-.1v.1H45v-.2h-.1v.2H44.1V3H44l-.2.1v.1h-.2V2.8h.2V2.5h-.4v.2h-.2V3.2H43v.1H43l-.1.2v.1h-.2l-.1.1h-.1l-.2.2v-.1h-.4l-.1.1h-.1V4h-.2v-.2h-.1l-.1.1v-.5h.2V3h.1V3h-.2l-.1-.1H41V3h-.1v.1h-.2v.1h-.5V2.8m0 0L40 3v.2H39.7L40 3h-.4l-.1.1h-.1v.1H39l-.1.2h-.1v.1h-.2v.1h-.2v.2-.1h-.2v.1h-.1L38 4l-.2.1v.4h-.2v.2h-.2v.2h-.1l-.1.2h-.1v.1H37v.1h-.5V5l-.2.1v.1h-.5v-.4h-.4v-.2l-.1.1h-.1v-.1l-.2-.1v-.1h-.1v.2h-.1v.2h-.2V5h-.1v.1l-.2.1v.5H34v.1h-.2V6h-.2v.2l-.2-.1h-.2V6.4h-.4v.2H32.4v-.1H32v.1h-.2v.1l-.1.1V7l-.1-.1h-.2v.5h-.2v.1H31v.1h-.1v.2h-.1V8H30.4l-.1.2h-.2v.1h-.8v.2h-.1V8.8h-.1V9H29V9.2l-.1.1-.1.1v-.2h-.2V9h-.2v.2h-.2v.1H28v.2h-.2v.2h-.1V9.4h-.1v.2h-.2l-.1.1h-.5V9.4h-.4v.6h.2v.1h-.2l-.2.2v-.2H25.8V10H25.5v.2H25.2l-.1-.2H25v.1h-.1v.1h-.1v.2h-.1V11.2h.2v.1h-.5v-.1h-.2v.2h.1V11.8H24v.2H24v.1h-.1v.1h-.2v.1h-.2v.2H23.1V12h-.4v.1l-.1.1v.2H22.3v.1H22v.2H22v.1l-.1.1h-.2l-.1.2h-.1v.2H21.1l-.1.2v.1h-.2V14h-.2v.2h-.2v-.2h-.1v.1h-.1v.1l-.2.2v.5H20v.1h-.1v.2h.2L20 15l.1-.1h.1v.2h.1V15.4H20v.1H20l-.1-.2h-.4V15l-.2-.1H19v.2h-.2v.1h-.1v.2h-.1v.2h-.2v.8h-.1v.2h.1v.2l-.1.2h-.1v.1H18v.2h-.1v.1h-.2v.1l-.1.2h-.1l-.2.1v.1h-.1m23-15h.2v-.2.1h-.2Zm-23 15H16.9v-.2h-.2v.2h-.2.1V18.3h-.2V18.5l-.1.1v.1H16V18.3H15.8h.2V18.8h.1v.4h-.2l-.1.2h-.2v.2h-.1v.2h-.2v.1h-.1v.1H15v.2h-.2v.1l-.1.1h-.1V20.7h-.1V21h-.2v.2h-.1V21.5H14v.2h-.2v.1H13.6v.1h-.1l-.1.2h-.2v.2H13v.2h-.2v.1h-.1l-.1.1-.1.2h-.2l-.1.1v.1h-.4v.2l-.1-.1h-1V23h-.4v.2l-.1.1v.1h-.1v.2H10v.2h-.4v.2h-.2v.1h-.2v.2H9v.1h-.2V24.7h-.2v.5h-.2V25.5h-.5v.2h-.1v.2l-.2.1V26.3h-.1l-.1.1v.1h-.2v.2H7v.1H7v.1l-.2.2h-.1l-.1.1h-.2l-.1.1h-.1l-.2.2v-.1.1h-.1v.1H5.6v.2h-.4l-.1.1v.1H5v.2H4.6v.1h-.2v.7H4v.1h-.1v.1h-.1v.2h-.2v.1h-.1v.1h-.2v.2H3v.1h-.2v.1H3 2.5l-.1.2h-.2v.2h-.7v.2-.1h-.1v-.1h-.2V30.8H.8V31H.6v.1H.6V31.9H.3l-.1.1H0v1-.1h.2V33.2h.2v.2h.2l-.1.1H.5v.5l-.2.2v.1H.2v.2H.6v-.1h.2v.2h.1V34.8H.6h.4v.2h.4l.1.2v.4h.1v.1l.2.1h.4v-.2h.2v-.1H3v.2h-.2v.1l-.1.2H2.3v.1h-.1l-.1.1-.2.2v-.1H1.6V36.7h-.2v.2H2v-.2h.2v-.2h.2v.2H3V37.5h-.2l.1.2H3v-.1h.2v-.1h.4v-.2h.2V37H4V36.8H4v-.5h.1v-.1h.2V36h.1l.1.1H4.9v.1H5V37.4h.2V37h.1V37h.1l.2-.2.1.1H6V36.5H6v-.2H6.3v-.1h.1l.1-.1V36h.2v.1h.1v.1H7v.2h.2v.2h.1V37H7.7v.2h.1V37.4H8.6V37.8H8.1v.2h-.4m9.4-20H17ZM7.7 38l.2.1v.1h-.1v-.2Zm0 0h-.2v.1h-.1v.4h-.2v.1m0 0H7.5v.2h-.1v.2h.1v.2h.2v.1l.2.1h-.1V39.7H8.2v-.2h.4v.4m-1.3-1.3Zm1.4 1.3v-.1m0 0-.2.2v.1h.1V40.6H8.9v.4h-.1v.2m0 0H9V41H9V41h.2m-.5.3h-.1Zm.5-.3v-.1m0 0h.2v.2H9.8v.1h.2l.1.2v.4h.2v-.1h.2v.1h.1l.1.1v.1h.8V41.6h-.2.1l.1-.2v-.6h-.2v-.2h.1m0 0v-.1Zm0 0H11.6v-.2h-.1v-.2h.2v-.1h.1v-.4l.2-.1h.1V39h-.2V39h.1v-.5h-.1v-.2h-.1v-.1h.2V38h.1l.1-.1H12.6v-.1h.1v-.2h-.4l-.2-.1V37h.1v-.2l.1-.1H12.6v-.1h.5V36.2h.2v-.1h.1l.1-.2v.1h.8V36H14.9v-.1h.2v-.1h.2v-.2H15h.2v-.2h.1v-.6l.2-.1m0 0h-.1.1Zm0 0v-.2h.2v-.1h.2v-.1h.2v.2h.4V34.8H17.3v-.3h-.4.2l.3-.3h.2V34H17v-.2l.2-.2V33h.1v-.2h.4m0 0 .2.1m0 0v.1m0 0h-.1m.2 0v-.2l.1.1v.2L18 33Zm0 0-.1.2h-.1v.1h-.2v.2h.1v-.1h.2v-.2h.1l.1-.1.1-.1h.2l.2.2H19v-.1h.2l.2.1.1.1h.2v-.1h.1v.1h.2v.2h.1m0 0h.1Zm0 0h.1l.3.1.2.1v.1h.2v.2l.1-.1.2.1V34.4h.2l.1-.1V34.7m0 0H21.9v.2H22.1v.2h.2v.2m-.7-.6h-.1Zm.8.6v.1l.1.1h.2m-.3-.2h-.1v.1Zm.3.3v-.1m0 0h.2-.1m0 0h-.1m0 0v-.2h.2v.1h.2v.1H23.5v.2h.1l.2.2h.1l.1.2.2.1.1.2h.1v.1h.2v.2h.1l.2.3v.2l.1.1v.1l.1.2v.4h-.2v.1l-.1.1v.2H24.3v.1h-.2v.1h.1v.4H24v.2h.1-.1v.1m0 0v.1Zm0 0-.1.1h-.1v.2H23.5v.1h-.1v.5h.2V40.5h.2v.4h.2v.2h.1v.1h.1v.1h.2v.2h.1v.2h.1v.2h.2v.4h.1v.1h.1v1h-.2v.8l-.1.1V45h.1v.2h.2v.4h.2v.2h.1v.1h.1v.2h.2v.1l.1.1h.1v.1h.2v.2h.4v.1h.2v.2h.2-.1v.1h.1l.1.1V47.4h.1v.1h.2v.2h.2v.2h.2l.1.2v.2h.1v.2H28.3l.1-.1h.3v-.1H29V48h.4v.2h.2v.2h.1l.2.1v.1h.6v.2l.2-.1.1-.2.1-.1V48h.2l-.1.2h.2V48h.2v-.1h.6l.1.1H33.5v-.1h.1l.1-.2H34l.1.1h.2v.2h.4v.1h.1v.1h.5v.2h.2v.2h.2v-.2h.2-.1v-.2h.2V48h.1v-.1h.4l.2-.2h.8l.1.1h.4l.1.2v-.1m0 0Zm0 0h.2v-.2m0 0-.1.1Zm0 0h.2v.1h.3v.2h.1l.2.1v.1h.2v.2h.2l.1.1.1.1h.1v.2h.2v.1l.2.2v.1h.1v.1h.1v.2h.1v.9h-.2v.1H40V50.9h.2v.1h-.1V51.3h.5V51.5h.1l.1-.1h.2v-.2m0 0H41V51h.4v.5h.1l.1-.1h.1v.1H42v.1l.1.1v.2h.2l.1.1V52.3l-.1.1V52.7h.1v.1h.2v.2h.1v.2h.2V53h.2v.1H43V53.6h.1v.1h.2v.2l.2-.1h.1v.2h.1v-.1h.2v.1h.1v.4h.1V54.6h.2v.2h.2l.2.2v-.1h.4l.1-.1H45.5v-.2h.4v-.2h.1v-.2h.1V54h.2l-.1-.2v-.1h.1v-.1h.1v-.2h.1v-.1h.2V53h.1v-.2H47.1V52.5h.1v-.1h.1v-.2h.2v-.4h.2v-.1h.2V51.5h.1v-.1h.1V51h.2V51m-7.2.2Zm7.2-.2v-.1Zm0 0h.2V50.7h.4v.1h.2l.1-.1v-.1H49.5v-.2h.1v-.1h.1V50h-.2l.1-.1h.1v-.1h.2v-.2h.2v.1H51.6v-.1h.1v-.2m0 0h-.1m0 0v-.2.1m0 0h.5V49h.4V48.6h.1v-.5h.2V48h-.1v-.1h-.2v-.2h-.2.2v-.1.1h.1v-.1h.4m-1.4 1.7h-.1Zm1.4-1.7v-.1h.1Zm0 0h.5v-.1l.2-.1h.2l.2-.2-.1-.1h-.1m0 0-.2.1h.1Zm0 0h-.2.2V46.7m0 0V46.5v.1m0 .2v-.1m0 0h.2V47h.6v-.1h.2l.1-.1v-.1h.1V46.3h.2v-.1L55 46v.1H55v.1H54.6V46m0 0H54.4V46h.2v.1Zm0 0h.2V46h.1v-.1h.4V45.5m0 0h-.2v-.1h.1Zm0 0V45.3m0 0v-.1.1Zm0 0v.2h.2v-.2h.1V45h.1V44.6m0 0v-.2.1Zm0 0 .2-.2V44.2m0 0h-.1V44h.2l.1-.1V43.2h.2V43h.1v-.1m-.5 1.3h.1Zm.5-1.3-.1-.1h.1v-.2l.1.1v-.2h.2v-.1l.1-.2h-.2l-.1.1v.1h-.2V42h.1V41.5h.1v.1-.2h.2v.6h.2v.4h.2v-.2h.1v-.4h.1v-.4h-.2v-.1H57V41h.2V39.3h.1V39h-.2V39h.2v-.5m-.9 4.4h.1v-.1Zm1-4.4h-.1Zm0 0v-.2h-.1.2v-.1h-.1V38h.1v-.1h.1V37.6m0 0Zm0 0h.1v-.4h.2V37h-.1l-.2-.1h.1-.2l.1-.2v-.1h.1v.1h.2v-.1h.1V36.4H58l-.1-.1h.2v-.1m0 0H58V36v.1Zm0 0V36h.1v-.2h.2H58v-.2H58.4v-.4h.2V34.9h.2v-.2h.1v-.2h.1v-.2h.2V34h.1V34h-.1v-.1h.4V33.5h.1v-.1h.1v-.2h.2v-.1h.1V33h.1v-.2h.2v-.1h.1l.1-.1h-.2V32.3l-.1-.1m0 0h.1v.2h.2v-.2l.2-.2h.2l.1-.1h.2v-.2h.1v-.1h.2v-.1h.1v-.2h.5v-.1l.1-.1V31H62h.1l.1-.1h.2v-.1h.1V30.1v.1h-.1V30l.1-.2v-.4h.5v-.1H63.9v-.1H64.2V29h.1V28.7h-.6v-.1h-.1v-.1H63V27l.2-.1h-.1v-.4m-3 5.8v.1H60v-.2.2Zm3-5.8.1-.1m0 0v.2-.1Zm0 0V26m0 .4h.1Zm0-.5v-.2h.2V25h.2V25l.1-.2v-.2H64.2l.1-.2h.1v.1h.2v.2-.1h.4l.1.1H65.3v.1h.2v-.1H65.9v-.1h.1V23h.2v-.2h.2v.1H67v-.5h-.1V22l-.1-.1h.2v-.4h-.2V21h.2v-.2h-.4v-.1h.1v-.1H67v-.4h-.2V20h-.2.1l.1-.2V19l.2-.1v-.1h.1m-3.7 7.1h.1Zm3.7-7.2v-.1l.1-.1v.1m0 .1v-.1h.2v-.1h.1v-.1H67.7v.2h.1v-.2h.1V17.7H67.5v-.1H67.3l-.1.1H66.3v-.1l-.1-.2m0 0V17h.2v-.1l.1-.1V16.4H67v-.2h-.1v-.1h-.1V16l-.2-.1v-.2m0 0-.1.1h-.1v.1H65v-.2h-.1v-.1h-.2v-.2H64.3l-.1.1H64l-.1-.2-.1.1v-.1h-.2v-.1l-.1-.2V15H63.3V14.7H63l-.2.1h-.1v-.1H61.7v-.1h-.1v-.1H61.3V14h-.1v-.2l-.1.1v-.1h-.4v-.1h-.2v-.1h-.1v-.2h-.1v-.1H60v-.1h-.2V13H59.2v.2H59v.1h-.2v.8h-.1.1v.2h.1v.5h-.2v.4h-.2v.2h-.2v.1h-.1v.1H57.6v.2H57.3v.1h-.2V16.2H57v.1h-.2v.1H56.5v.2H56.2v.2h-.1v.2h-.5v.1h-.1v.2h-.2v.1h-.2v.1l-.1.1h-.7l.1.2v.1h-1.3l-.1-.1H53v-.1l-.2-.1h-.2l-.2-.2h-.1v-.1h-.4v-.1H51.6V17h-.2v-.1h-.2v-.1h-.4l-.1-.2H50.4v-.1H50v-.2h-.4v-.1h-.2V16H49v-.2H48.6v-.1h-.1v-.2h-.2v.1h-.2v-.2H47.8v-.1h-.1V15h-.2l-.1-.1-.2-.2H47v-.1l-.1-.2-.2-.2-.1-.2h-.1v-.2h-.2v-.2l-.2-.2-.1-.2V13l-.2-.1h.1-.1l-.1-.3v-.2l-.2-.2v-1.5l.1-.2V10.2l.2-.1V10h.2v-.2H46.5m20.1 6h.2v-.1l-.2.1Zm-20-6h.2l-.1.2h.2l.1.1v.1h.2m-.7-.4v.2m0-.2v.2m.7.3h.2v-.1H47.7l.1-.2h.4v-.1h.2v-.1h.1l.1.2h.2v-.1h.2V9.6H49.3v-.1h.1v-.2h.2v-.4h.1v-.1h.1v-.1l.2-.2v-.1h.1v-.1l.1-.2v-.2h-.5v-.2h-.1v-.2h-.1V7h.1V6.7h.2-.2v-.4h.2l.2-.2h.2V6H50.5v-.2h-.1l-.1-.1H50v-.1h-.4v.2h-.1V6.1h-.1v.1l-.2.1H49v.2h-.2v.1h-.1v.1h-.1V7h-.2v-.1h-.2V7.2H47.8v.2H47.6v.1H47.2V7.7H47v.1H47V8H46.3v-.2h-.1l-.1-.1H46v.2h-.2V8.1H45.6v.1h-.2V8h-.1v.1H45V8.6h-.1v.1H44.2v-.1h-.1l-.1-.1v-.1h-.2V8h-.2v-.2h-.2v-.2l-.1-.2h-.1v-.2l-.2-.1V7l-.1-.2v-.2l-.1-.1V5m4.2 5.3-.2.1v.1l.2-.1v-.1ZM43 5v.2h.1L43 5Zm3.3 5v.1h.1Zm20.2 7.4v-.1ZM44 4.7v.1ZM18 34.1v.1Zm0 .3-.4.4.5-.4H18Zm4.5.8.1.1Zm-7.4.8Zm9.7 1.7ZM8.5 41.4v.1Zm46 5.3h.1Zm-1 0 .1.2v-.1Zm-2.2 2.4Zm-1.3.4Z"/></svg>